<svg aria-hidden="true" style="position:absolute;width:0;height:0;overflow:hidden" xmlns="http://www.w3.org/2000/svg"><defs><symbol id="antenna" viewBox="0 0 32 32"><path fill="#212121" style="fill:var(--color1, #212121)" d="m30.773 22.098-8.443-8.505.937-4.615c.242.094.499.144.758.146h.006c1.192.014 2.17-.941 2.184-2.133s-.941-2.17-2.133-2.184c-1.192-.014-2.17.941-2.184 2.133-.003.255.039.509.125.749l-4.96.605L8.972.161C8.873.06 8.737.002 8.595.001c-.14.001-.274.056-.373.155L6.709 1.66c-.208.208-.208.546 0 .754l.814.826C4.37 9.038 5.394 16.218 10.042 20.903c.043.041.092.074.146.098-.034.18-.051.364-.052.547v6.187h-6.4c-1.472.002-2.665 1.195-2.667 2.667v1.067c0 .295.239.533.533.533h24.533c.295 0 .533-.239.533-.533v-1.067c-.002-1.472-1.195-2.665-2.667-2.667h-6.4v-2.742c1.003.21 2.024.317 3.049.32 2.458-.003 4.877-.615 7.04-1.783l.818.823c.099.101.235.159.377.16.14-.001.274-.056.373-.155l1.513-1.504c.208-.208.208-.546 0-.754zM23.28 6.233c.418-.415 1.093-.414 1.508.004s.414 1.093-.004 1.508c-.2.199-.47.31-.752.31h-.003c-.589-.003-1.064-.483-1.061-1.072.002-.282.115-.552.314-.751h-.002zm-1.256 3.505-.598 2.946-1.175-1.182 1.774-1.763zm-.605-.902-1.92 1.909-1.485-1.493 3.405-.415zM24.004 28.8c.884 0 1.6.716 1.6 1.6v.533H2.137V30.4c0-.884.716-1.6 1.6-1.6h20.267zm-7.467-2.133v1.067h-5.333v-1.067h5.333zM11.204 25.6v-4.053c0-1.294 1.196-2.347 2.667-2.347s2.667 1.053 2.667 2.347V25.6h-5.333zm6.4-1.696v-2.357c0-1.882-1.675-3.413-3.733-3.413-1.331-.02-2.576.657-3.281 1.786C6.532 15.646 5.619 9.275 8.311 4.033l18.602 18.708c-2.872 1.461-6.165 1.873-9.309 1.163zm11.289-.684L7.836 2.039l.755-.752 7.935 7.98c.004 0 .006.007.01.01l13.115 13.191-.757.752z"/><path fill="#2196f3" style="fill:var(--color2, #2196f3)" d="M13.876 20.267h-.005c-.884-.001-1.601.714-1.602 1.598s.714 1.601 1.598 1.602h.005c.884.001 1.601-.714 1.602-1.598s-.714-1.601-1.598-1.602zm.373 1.978c-.1.1-.236.156-.378.155-.295-.002-.532-.242-.531-.536.001-.141.057-.276.157-.375s.233-.154.373-.155c.295.002.532.241.53.536-.001.141-.057.276-.157.375h.005z"/></symbol><symbol id="astronaut" viewBox="0 0 32 32"><path fill="#2196f3" style="fill:var(--color2, #2196f3)" d="M31.974 4.524c-.063-.193-.229-.333-.43-.363l-1.91-.278-.855-1.731c-.179-.365-.777-.365-.956 0l-.855 1.731-1.91.278c-.201.029-.367.17-.431.363-.062.193-.011.405.135.547l1.383 1.348-.326 1.903c-.034.2.048.402.212.522.166.121.382.135.562.04l1.709-.899 1.709.899c.078.041.164.061.249.061.11 0 .221-.034.314-.102.164-.119.246-.322.212-.522l-.326-1.903 1.383-1.348c.145-.142.197-.354.135-.547zm-2.463 1.327c-.125.122-.183.299-.153.472l.191 1.114-1-.526c-.078-.041-.163-.061-.249-.061s-.17.02-.249.061l-1.001.526.191-1.114c.03-.173-.028-.349-.153-.472l-.81-.789 1.119-.163c.174-.025.324-.134.402-.292l.5-1.013.5 1.013c.078.157.228.267.402.292l1.119.163-.809.789zm-3.377 14.671h-1.067v1.067h1.067v-1.067zm0 2.134h-1.067v1.067h1.067v-1.067zm1.066-1.067h-1.067v1.067H27.2v-1.067zm-2.133 0H24v1.067h1.067v-1.067zm-2.667 4.8h-1.067v1.067H22.4v-1.067zm0 2.133h-1.067v1.067H22.4v-1.067zm1.067-1.066H22.4v1.067h1.067v-1.067zm-2.134 0h-1.067v1.067h1.067v-1.067zM16 24.256h-1.067v1.067H16v-1.067zm0 2.133h-1.067v1.067H16v-1.067zm1.067-1.067H16v1.067h1.067v-1.067zm-2.134 0h-1.067v1.067h1.067v-1.067zm-9.066-19.2H4.8v1.067h1.067V6.122zm0 2.133H4.8v1.067h1.067V8.255z"/><path fill="#2196f3" style="fill:var(--color2, #2196f3)" d="M6.933 7.189H5.866v1.067h1.067V7.189zm-2.133 0H3.733v1.067H4.8V7.189z"/><path fill="#212121" style="fill:var(--color1, #212121)" d="M24.715 14.159c-.287-.388-.709-.637-1.188-.705-.481-.068-.956.058-1.34.352l-1.252.96-1.898 1.417-1.358-.541c2.421-1.086 4.114-3.508 4.114-6.32 0-3.823-3.123-6.933-6.961-6.933s-6.961 3.11-6.961 6.933c0 1.386.414 2.674 1.12 3.758l-2.769-.024c-.009 0-.015.004-.023.005-.053.002-.105.013-.155.031-.013.005-.026.008-.038.013-.006.003-.013.003-.019.006l-3.233 1.596c-.001 0-.001 0-.001.001l-1.893.911c-.021.009-.042.021-.063.035-.755.502-1.012 1.489-.598 2.295.22.429.595.745 1.056.889.178.055.359.083.539.083.29 0 .577-.071.839-.211l1.388-.738 2.264-1.169 1.357-.008L2.2 22.211c-.001.001-.001.001-.002.001L.859 23.545c-.316.315-.49.732-.49 1.178s.174.863.49 1.179c.325.323.752.485 1.179.485s.854-.162 1.18-.485l1.314-1.309 1.741-1.3.901.897-1.762 1.754c0 .001-.001.001-.002.001l-1.339 1.333c-.316.315-.49.732-.49 1.178s.174.863.49 1.179c.325.323.753.485 1.18.485s.855-.162 1.18-.485l3.482-3.467c.001-.001.001-.001.001-.002l1.01-1-.004-.004c.006-.006.015-.009.022-.015l5.166-5.658 3.471.494c.025.004.05.005.075.005.065 0 .127-.015.187-.038.018-.006.033-.015.05-.023.019-.01.039-.015.058-.027l3.213-2.133c.012-.008.018-.021.029-.029.013-.01.029-.014.041-.026l1.271-1.191c.662-.62.753-1.635.212-2.362zM2.13 17.77c-.173.093-.37.111-.558.052-.187-.058-.338-.186-.427-.358-.161-.314-.068-.695.214-.902l1.314-.632.449 1.312-.992.528zm3.498-1.828-1.548.8-.439-1.283 2.027-1.001-.04 1.484zm15.099-6.62c0 .918-.219 1.785-.599 2.559l-4.181-1.899c-.044-.573-.341-1.075-.788-1.388l1.464-4.86c2.378.756 4.105 2.974 4.105 5.588zm-11.789 0c0-3.235 2.644-5.867 5.894-5.867.253 0 .5.021.745.052l-1.432 4.754c-.019-.001-.037-.006-.057-.006-1.033 0-1.873.837-1.873 1.867s.84 1.867 1.873 1.867c.694 0 1.294-.383 1.618-.945l3.862 1.755c-1.075 1.446-2.795 2.39-4.737 2.39-3.25 0-5.894-2.632-5.894-5.867zm5.956.8c0 .441-.362.8-.806.8s-.806-.359-.806-.8c0-.441.362-.8.806-.8s.806.359.806.8zM2.465 25.146c-.236.234-.619.234-.854.001-.114-.114-.176-.263-.176-.423s.062-.309.176-.421l.962-.958.851.848-.959.955zm3.214 3.734c-.236.234-.619.235-.855.001-.114-.114-.176-.263-.176-.423s.062-.309.176-.421l.963-.959.852.848-.96.955zm3.481-3.469c-.001 0-.001 0-.002.001l-1.765 1.76-.852-.848 1.763-1.756c.001-.001.001-.001.002-.001.04-.04.065-.088.09-.135.007-.014.02-.026.026-.04.017-.041.019-.085.026-.129.003-.025.014-.047.014-.073 0-.036-.013-.07-.02-.106-.006-.032-.006-.065-.019-.095-.02-.05-.055-.094-.091-.138-.01-.012-.014-.027-.025-.038h-.001c-.001 0-.001-.002-.001-.002l-1.607-1.6c-.017-.017-.039-.024-.058-.038-.028-.022-.055-.042-.087-.058-.03-.015-.061-.024-.093-.033-.034-.01-.067-.017-.103-.02-.033-.002-.063.001-.095.005-.036.004-.069.009-.104.02-.034.011-.063.027-.094.045-.02.011-.042.015-.061.029L4.23 23.485l-.901-.897 2.399-2.386 4.361 4.289-.928.919zm6.819-7.017c-.015-.002-.03.004-.045.003-.039-.002-.076.001-.115.007-.03.005-.059.011-.088.021-.034.012-.065.028-.097.047-.03.018-.057.037-.083.061-.013.011-.028.017-.04.029l-4.698 5.146-4.328-4.257 2.833-2.818c.209-.208.21-.546.002-.755-.105-.105-.243-.157-.381-.156v-.001l-2.219.013.028-1.607 3.104.027c1.265 1.294 3.029 2.101 4.981 2.101.437 0 .864-.045 1.279-.123.04.032.079.065.13.085l2.41.96.331 1.644-3.003-.427zm4.041.178-.313-1.558 1.446-1.08.947 1.257-2.08 1.381zm3.754-2.831-.838.785-.931-1.236.831-.637c.155-.119.351-.168.543-.143.193.027.364.128.48.284.217.292.18.699-.085.947z"/><path fill="#212121" style="fill:var(--color1, #212121)" d="m13.602 18.544-2.143-2.133c-.207-.207-.545-.207-.753 0l-2.142 2.133c-.1.101-.157.236-.157.378s.056.278.157.378l2.142 2.133c.104.103.241.155.377.155s.273-.052.376-.155l2.143-2.133c.1-.1.157-.236.157-.378s-.057-.278-.157-.378zm-2.519 1.759-1.387-1.381 1.387-1.381 1.387 1.381-1.387 1.381zm6.081-15.232-.258 1.036c.071.018 1.738.452 1.738 2.149h1.067c0-2.017-1.666-2.965-2.547-3.185zm2.547 4.251h-1.067v1.067h1.067V9.322z"/></symbol><symbol id="clock" viewBox="0 0 32 32"><path fill="#212121" style="fill:var(--color1, #212121)" d="M31.297 15.301C31.295 6.849 24.442-.002 15.989 0S.686 6.855.688 15.308c.001 6.658 4.307 12.551 10.649 14.576.061.019.124.029.187.029.121 0 .239-.032.342-.094.135-.08.236-.207.283-.356l3.865-12.25c1.057-.005 1.909-.866 1.903-1.923s-.866-1.909-1.923-1.903c-.284.001-.565.067-.82.191l-5.106-5.107c-.253-.245-.657-.238-.902.016-.239.247-.239.639 0 .886l5.103 5.109c-.392.799-.168 1.764.536 2.309l-3.683 11.673C3.844 25.783.118 17.71 2.799 10.432S13.553-.572 20.831 2.109s11.004 10.754 8.323 18.032c-1.31 3.556-4.001 6.431-7.462 7.973l-.398-1.874c-.073-.344-.411-.565-.756-.492-.109.023-.209.074-.292.148l-3.837 3.426c-.263.234-.287.637-.052.9.076.085.174.149.283.184l4.899 1.563c.335.108.694-.077.802-.412.034-.106.04-.219.017-.328l-.391-1.839c5.664-2.388 9.342-7.942 9.329-14.089zm-15.305-.637c.352 0 .638.286.638.638s-.286.638-.638.638c-.352 0-.638-.285-.638-.638s.285-.638.638-.638zm2.101 14.864 2.184-1.948.603 2.84-2.787-.892z"/><path fill="#2196f3" style="fill:var(--color2, #2196f3)" d="M15.354 3.185V4.46c0 .352.285.638.638.638s.638-.285.638-.638V3.185c0-.352-.286-.638-.638-.638s-.638.286-.638.638zM3.876 14.664c-.352 0-.638.286-.638.638s.285.638.638.638h1.275c.352 0 .638-.285.638-.638s-.285-.638-.638-.638H3.876zm24.232 1.275c.352 0 .638-.285.638-.638s-.285-.638-.638-.638h-1.275c-.352 0-.638.286-.638.638s.286.638.638.638h1.275z"/></symbol><symbol id="diagram" viewBox="0 0 32 32"><path fill="#2196f3" style="fill:var(--color2, #2196f3)" d="M14.926 14.965h1.066v4.798h-1.066v-4.797zm4.264 2.132h1.066v2.665H19.19v-2.665zm-8.529 1.599h1.066v1.066h-1.066v-1.066zm-3.198-.533h1.066v1.599H7.463v-1.599z"/><path fill="#212121" style="fill:var(--color1, #212121)" d="M1.599 28.291h25.587c.883 0 1.599-.716 1.599-1.599V24.56c0-.883-.716-1.599-1.599-1.599h-.533V9.668L29.681 6.8c.703.346 1.553.136 2.013-.499s.396-1.508-.152-2.068-1.42-.644-2.065-.198c-.644.446-.873 1.292-.542 2.002L26.654 8.2V6.97c0-.883-.716-1.599-1.599-1.599H3.733c-.883 0-1.599.716-1.599 1.599v15.992h-.533c-.883 0-1.599.716-1.599 1.599v2.132c0 .883.716 1.599 1.599 1.599zM30.384 4.837c.294 0 .533.239.533.533s-.239.533-.533.533c-.294 0-.533-.239-.533-.533s.239-.533.533-.533zM3.198 6.969c0-.294.239-.533.533-.533h21.322c.294 0 .533.239.533.533v2.239l-1.066 1.013V8.035c0-.294-.239-.533-.533-.533H4.797c-.294 0-.533.239-.533.533v13.326c0 .294.239.533.533.533h19.19c.294 0 .533-.239.533-.533v-9.674l1.066-1.01v12.284H3.198V6.969zm4.798 6.93c-.721-.002-1.354.478-1.546 1.174s.105 1.433.725 1.801c.62.368 1.41.276 1.928-.226l1.853.93c.215.108.476.057.636-.123l3.939-4.431 3.872 2.901c.208.156.498.139.686-.039l3.365-3.188v8.131H5.33V8.569h18.124v2.66l-3.771 3.572-3.904-2.927c-.222-.166-.534-.135-.718.072l-3.993 4.493-1.493-.746c.011-.064.018-.129.02-.193 0-.883-.716-1.599-1.599-1.599zm.533 1.599c0 .294-.239.533-.533.533s-.533-.239-.533-.533c0-.294.239-.533.533-.533s.533.239.533.533zm3.198 8.529h5.331v.533c0 .294-.239.533-.533.533h-4.264c-.294 0-.533-.239-.533-.533v-.533zm-10.661.533c0-.294.239-.533.533-.533h9.062v.533c0 .883.716 1.599 1.599 1.599h4.264c.883 0 1.599-.716 1.599-1.599v-.533h9.062c.294 0 .533.239.533.533v2.132c0 .294-.239.533-.533.533H1.598c-.294 0-.533-.239-.533-.533V24.56z"/></symbol><symbol id="envelope" viewBox="0 0 32 32"><path fill="#757575" style="fill:var(--color3, #757575)" d="M29 4H3C1.346 4 0 5.346 0 7v18c0 1.654 1.346 3 3 3h26c1.654 0 3-1.346 3-3V7c0-1.654-1.346-3-3-3zm0 2c.136 0 .265.028.383.077L16 17.676 2.617 6.077C2.735 6.028 2.864 6 3 6h26zm0 20H3c-.552 0-1-.448-1-1V8.19l13.345 11.565c.188.163.422.244.655.244s.467-.081.655-.244L30 8.19V25c0 .552-.448 1-1 1z"/></symbol><symbol id="facebook" viewBox="0 0 32 32"><path fill="#afb1b8" style="fill:var(--color4)" d="M21.329 5.313h2.921V.225C23.746.156 22.013 0 19.994 0c-4.212 0-7.097 2.649-7.097 7.519V12H8.249v5.688h4.648V32h5.699V17.689h4.46l.708-5.688h-5.169V8.082c.001-1.644.444-2.769 2.735-2.769z"/></symbol><symbol id="group-2" viewBox="0 0 28 32"><path fill="#afb1b8" style="fill:var(--color4, #afb1b8)" d="m4.086 0 4.772 4.518L0 4.513v21.918h23.153v-8.38l4.767 4.513V.001H4.086zm18.858 17.52L9.413 4.711h13.531V17.52zm-4.201 5.705H3.664V8.484H4.73v13.743h14.013v.998zM7.225 29.349l-.557 1.147-.557-1.147h-.467l.813 1.529v.891h.422v-.891l.811-1.529h-.465zm.7 2.421.196-.564h.938l.198.564h.439l-.916-2.421h-.377l-.914 2.421h.437zm.665-1.907.351 1.004h-.702l.351-1.004zm2.217.946c-.061.093-.091.196-.091.308 0 .204.072.37.214.497.144.126.336.189.575.189s.446-.065.618-.194l.136.161h.469l-.356-.421c.14-.191.209-.435.209-.733h-.351c0 .163-.034.311-.101.444l-.467-.552.165-.12c.116-.084.2-.168.251-.253.051-.085.076-.178.076-.279 0-.153-.057-.281-.17-.384-.112-.104-.256-.156-.432-.156-.195 0-.35.055-.466.166s-.173.259-.173.449c0 .078.018.158.055.241.038.083.104.184.198.303-.18.129-.3.24-.361.334zm1.093.535c-.119.091-.246.136-.382.136-.121 0-.217-.035-.289-.105s-.108-.161-.108-.273c0-.13.067-.245.2-.346l.052-.037.529.623zm-.434-1.072c-.114-.141-.171-.258-.171-.351 0-.081.023-.148.07-.201s.109-.08.188-.08c.073 0 .134.023.181.068.048.044.072.098.072.161 0 .095-.034.173-.103.234l-.052.042-.185.126zm3.94 1.315c.166-.145.262-.347.286-.605h-.419c-.022.173-.075.296-.158.371s-.207.111-.372.111c-.181 0-.318-.069-.412-.206-.093-.137-.14-.337-.14-.599v-.214c.002-.258.052-.454.15-.587.099-.134.239-.201.422-.201.157 0 .277.039.357.116.082.076.133.202.153.376h.419c-.027-.265-.121-.47-.284-.615s-.378-.218-.645-.218c-.198 0-.373.047-.525.141-.151.094-.267.228-.347.402s-.121.375-.121.604v.226c.003.223.045.418.125.587s.193.299.339.391c.147.091.318.136.51.136.276 0 .497-.072.663-.216zm2.472-.339c.082-.18.123-.388.123-.625v-.135c-.001-.236-.043-.443-.126-.62s-.201-.315-.354-.409c-.152-.095-.326-.143-.524-.143s-.372.048-.525.145c-.152.095-.27.233-.354.414-.083.181-.125.389-.125.625v.136c.001.232.043.436.126.613.084.177.203.314.356.411.154.095.329.143.525.143.198 0 .373-.048.525-.143.153-.096.27-.234.352-.412zm-.451-1.369c.102.143.153.349.153.617v.126c0 .273-.05.48-.151.622-.1.142-.243.213-.429.213-.184 0-.328-.073-.432-.218-.103-.145-.155-.351-.155-.617v-.14c.002-.26.054-.462.156-.604.103-.143.245-.214.427-.214.186 0 .33.072.431.214z"/></symbol><symbol id="group-3" viewBox="0 0 25 32"><path fill="#afb1b8" style="fill:var(--color4, #afb1b8)" d="M10.536 1.806h-.084c-.129-.008-.258-.011-.388-.014h-.28c-.245 0-.494.006-.741.019-.019-.001-.037-.001-.056 0-2.243.127-4.441.688-6.473 1.651l-.266.128v13.629l.623-.211c.547-.188 1.129-.357 1.732-.513 1.629-.418 3.302-.64 4.983-.662v1.791c-.223.002-.439.008-.656.019h-.051c-1.294.071-2.578.268-3.834.589-1.591.398-3.125.996-4.567 1.78V2.532C1.976 1.658 3.589 1.002 5.27.583 6.746.202 8.262.006 9.786.001h.263c.315.008.621.022.909.044.759.053 1.512.173 2.25.358v1.763c-.717-.167-1.446-.277-2.18-.329-.015-.001-.03-.003-.045-.004-.152-.013-.304-.026-.446-.026zm3.102 1.802c.391.03.796.044 1.205.044 1.602-.006 3.196-.21 4.748-.609 1.59-.4 3.124-.998 4.566-1.781v17.169c-1.499.873-3.112 1.529-4.793 1.949-1.476.38-2.993.575-4.516.581-1.154.009-2.305-.126-3.426-.404V3.277c.265.061.537.117.814.164.455.077.934.133 1.402.167zm8.737.133-.623.21c-.573.193-1.151.365-1.732.518-1.691.435-3.429.657-5.175.664-.406 0-.78-.011-1.141-.034l-.497-.033v14.021l.427.038c.396.034.804.052 1.215.052 1.375-.006 2.744-.183 4.075-.527 1.096-.275 2.163-.658 3.185-1.144l.266-.128V3.744zM1.686 25.985c-.09-.093-.198-.166-.317-.214s-.248-.071-.376-.066c-.137-.002-.273.024-.4.075-.117.046-.223.116-.311.205s-.156.196-.201.313c-.049.123-.073.254-.072.387v2.335c-.006.165.026.328.092.479.055.12.135.226.234.313.093.079.203.135.321.166.114.032.231.048.349.049.13.001.259-.027.377-.081.117-.051.222-.124.311-.216.087-.091.156-.197.204-.313.05-.118.075-.244.075-.373v-.261h-.61v.208c.002.071-.01.142-.036.208-.02.05-.05.095-.089.131-.038.031-.081.053-.128.067-.041.014-.084.021-.128.022-.054.006-.11-.002-.16-.024s-.094-.057-.127-.101c-.058-.094-.086-.203-.081-.313v-2.177c-.004-.121.022-.241.075-.349.032-.049.077-.089.129-.114s.112-.034.17-.027c.053-.002.105.009.152.032s.089.057.12.099c.068.09.104.2.101.313v.202h.604v-.238c.001-.14-.024-.278-.075-.409-.045-.122-.115-.234-.204-.329zm3.627-.027c-.195-.164-.44-.255-.695-.257-.124 0-.248.023-.364.066-.119.042-.228.107-.322.191-.101.091-.182.202-.237.327-.062.143-.092.297-.089.452v2.24c-.004.158.026.314.089.459.055.12.136.227.237.313.093.087.203.154.322.197.117.043.24.065.364.066s.248-.023.364-.066c.121-.044.234-.111.33-.197.097-.087.176-.194.23-.313.063-.145.093-.301.089-.459v-2.24c.003-.155-.027-.31-.089-.452-.054-.123-.133-.235-.23-.327zm-.285 3.02c.005.06-.003.12-.024.176s-.054.107-.097.148c-.081.068-.182.105-.287.105s-.207-.037-.287-.105c-.043-.041-.076-.092-.097-.148s-.029-.116-.024-.176v-2.24c-.005-.06.003-.12.024-.176s.054-.107.097-.148c.081-.068.182-.105.287-.105s.207.037.287.105c.043.041.076.092.097.148s.029.116.024.176v2.24zm5.048 1v-4.24h-.587l-.771 2.245h-.011l-.777-2.245h-.581v4.24h.606v-2.58h.011l.593 1.824h.302l.598-1.824h.011v2.58h.606zm3.442-3.943c-.093-.105-.211-.184-.343-.232-.142-.046-.29-.068-.439-.066h-.9v4.241h.604v-1.656h.311c.189.009.376-.031.545-.116.137-.076.252-.188.332-.324.07-.113.117-.238.139-.369.024-.16.035-.321.033-.482.006-.204-.014-.407-.059-.606-.04-.147-.117-.281-.223-.39zm-.312 1.293c-.003.077-.022.152-.056.221-.035.065-.089.117-.156.149-.089.04-.187.058-.285.053h-.276v-1.442h.311c.094-.005.187.014.273.053.062.036.112.091.142.157.033.074.051.155.053.236v.282c0 .099.006.2 0 .291h-.006zm3.174-1.591h-.495l-.934 4.24h.604l.178-.911h.824l.178.911h.604l-.958-4.24zm-.558 2.752.297-1.537h.011l.296 1.537h-.604zm4.462-.197h-.011l-.913-2.555h-.581v4.24h.604v-2.55h.012l.923 2.55h.568v-4.24h-.604v2.555zm3.692-2.555-.486 1.686h-.012l-.486-1.686h-.64l.83 2.448v1.792h.604v-1.792l.83-2.448h-.64zM.001 31.175h.291v.817H.49v-.817h.29v-.168H.001v.168zm2.448-.167-.382.985h.21l.081-.224h.392l.084.224h.215l-.391-.985h-.21zm-.031.595.134-.365.134.365h-.268zm2.451.026h.227v.127c-.066.053-.149.082-.234.083-.04.002-.079-.005-.116-.021s-.068-.041-.093-.072c-.052-.075-.078-.165-.073-.257 0-.219.095-.329.283-.329.05-.005.099.008.14.037s.07.071.083.12l.195-.038c-.042-.193-.181-.29-.417-.29-.127-.003-.25.042-.344.127-.05.049-.088.108-.112.174s-.034.135-.029.205c-.006.135.039.267.126.369.048.05.107.088.171.113s.134.035.203.031c.154.004.304-.052.417-.157v-.388h-.427v.166zm2.471-.621h-.199v.985h.69v-.168h-.49v-.817zm2.09 0h-.199v.985h.199v-.985zm2.043.657-.403-.657h-.193v.985h.185v-.643l.396.643h.198v-.985h-.182v.657zm1.847-.106h.491v-.168h-.491v-.216h.528v-.168h-.727v.985h.748v-.168h-.548v-.266zm4.479-.163h-.388v-.388h-.198v.985h.198v-.43h.388v.43h.198v-.985h-.198v.388zm1.857.163h.492v-.168h-.492v-.216h.529v-.168h-.727v.985h.746v-.168h-.548v-.266zm2.52 0c.171-.027.258-.117.258-.274.005-.042-.001-.084-.018-.123s-.044-.072-.078-.096c-.089-.045-.189-.065-.288-.058h-.417v.985h.198v-.412h.039c.042-.003.084.005.123.022.029.018.053.043.07.072l.215.313h.237l-.12-.193c-.053-.095-.128-.176-.218-.236zm-.199-.136h-.146v-.247h.156c.068-.005.136.002.201.023.014.013.026.029.033.046s.011.037.01.056c-.001.019-.006.038-.015.055s-.022.032-.037.043c-.065.02-.133.028-.201.023zm2.099.136h.491v-.168h-.491v-.216h.529v-.168h-.729v.985h.747v-.168h-.548v-.266z"/></symbol><symbol id="group-4" viewBox="0 0 34 32"><path fill="#afb1b8" style="fill:var(--color4, #afb1b8)" d="M5.643 31.315c.012 0 .024.003.035.007s.021.011.029.018l.166.159c-.129.129-.288.231-.467.302-.21.076-.435.113-.663.108-.213.004-.426-.031-.623-.101-.178-.065-.338-.162-.469-.285-.134-.128-.237-.278-.303-.44-.073-.182-.108-.373-.106-.565-.003-.193.036-.386.114-.567.073-.164.182-.314.322-.44.142-.124.312-.222.499-.287.205-.069.422-.103.642-.101.204-.004.407.027.596.092.165.062.316.148.447.255l-.139.17c-.01.012-.022.022-.035.031-.016.01-.036.014-.056.013-.022-.001-.042-.008-.06-.018l-.075-.045-.104-.058c-.045-.021-.091-.04-.139-.056-.062-.019-.125-.034-.189-.045-.082-.013-.164-.019-.247-.018-.158-.002-.315.024-.461.076-.136.048-.26.121-.361.213-.104.098-.183.214-.235.339-.058.144-.087.295-.085.448-.002.155.026.309.085.455.051.125.129.239.231.338.095.092.213.163.345.209.136.049.281.073.428.072.085.001.17-.004.253-.014.137-.015.268-.056.384-.121.058-.033.113-.071.164-.112.021-.018.049-.028.079-.029zm4.798-.798c.003.192-.035.382-.112.561-.068.163-.174.311-.313.436s-.306.222-.491.286c-.407.135-.856.135-1.263 0-.184-.065-.35-.163-.488-.287-.138-.127-.246-.276-.316-.44-.15-.364-.15-.761 0-1.125.071-.164.178-.314.316-.442.139-.12.305-.214.488-.276.406-.137.857-.137 1.263 0 .185.065.351.163.49.287.137.125.243.273.314.435.077.181.115.372.112.565zm-.436 0c.003-.153-.023-.306-.079-.451-.047-.125-.122-.239-.222-.338-.097-.093-.217-.166-.351-.213-.296-.099-.623-.099-.918 0-.134.047-.254.12-.351.213-.101.097-.178.212-.224.338-.106.294-.106.609 0 .903.047.125.123.24.224.338.098.092.217.164.351.211.296.096.622.096.918 0 .134-.047.254-.119.351-.211.1-.098.175-.213.222-.338.056-.145.082-.298.079-.451zm3.71.473.044.101c.017-.036.031-.069.048-.101.016-.034.034-.067.054-.099l1.062-1.677c.021-.029.039-.047.06-.052.028-.007.058-.011.087-.009h.314v2.727h-.372v-2.09c-.002-.031-.002-.063 0-.094l-1.068 1.7c-.014.025-.035.047-.063.062s-.059.023-.091.023h-.06c-.032 0-.064-.007-.091-.022s-.049-.037-.062-.062l-1.099-1.711v2.189h-.359v-2.722h.314c.03-.002.059.002.087.009.026.011.046.03.058.052l1.084 1.678c.021.031.039.064.054.097zm3.995-.135v1.021h-.415v-2.723h.926c.175-.003.349.017.517.059.134.033.259.091.366.17.092.074.163.165.208.267.049.111.073.229.071.348.002.119-.024.238-.077.348-.05.104-.127.198-.224.273-.107.082-.232.143-.368.18-.162.045-.331.066-.501.063l-.503-.007zm0-.293h.503c.109.001.218-.013.322-.041.086-.025.165-.065.233-.117.062-.05.111-.112.141-.18.034-.073.051-.151.05-.229.005-.076-.009-.151-.042-.222s-.082-.134-.145-.186c-.159-.108-.358-.16-.559-.146h-.503v1.122zm5.584 1.318h-.328c-.033.001-.065-.008-.091-.025-.024-.017-.042-.039-.054-.063l-.282-.659H21.12l-.293.659c-.011.024-.029.045-.052.061-.026.018-.06.028-.093.027h-.328l1.246-2.727h.432l1.263 2.727zm-2.057-1.013h1.172l-.494-1.11c-.038-.084-.069-.169-.093-.256l-.048.143c-.014.043-.031.083-.046.116l-.49 1.108zm3.852-1.702c.025.012.046.029.062.049l1.818 2.056v-2.117h.372v2.727h-.208c-.03.001-.059-.005-.085-.016-.026-.013-.048-.03-.067-.05l-1.816-2.054c.002.031.002.063 0 .094v2.027h-.372v-2.727h.22c.026-.001.051.004.075.013zm5.313 1.63v1.083h-.415v-1.083l-1.149-1.642h.372c.032-.002.064.007.089.023.023.018.042.038.056.061l.719 1.059c.029.045.054.087.075.126s.037.078.052.116l.054-.117c.02-.043.044-.084.071-.125l.708-1.067c.015-.021.033-.041.054-.058.025-.019.057-.028.089-.027h.376l-1.151 1.65zM13.51 24.576c.181.02.364.036.548.051 2.803-1.089 5.174-2.873 6.817-5.126s2.485-4.878 2.421-7.546l-3.089-2.684c.628 2.84.334 5.776-.849 8.479s-3.208 5.067-5.849 6.827z"/><path fill="#afb1b8" style="fill:var(--color4, #afb1b8)" d="m12.407 24.451.083.014c2.822-1.754 4.974-4.203 6.176-7.03s1.402-5.904.571-8.83l-4.4-3.823c1.78 3.142 2.496 6.659 2.066 10.141s-1.989 6.786-4.496 9.528zm14.921-9.345c-.747 2.931-2.563 5.574-5.177 7.537-.763.576-1.587 1.09-2.46 1.534 2.128-.544 4.085-1.504 5.718-2.809s2.9-2.917 3.703-4.714l-1.784-1.549z"/><path fill="#afb1b8" style="fill:var(--color4, #afb1b8)" d="m26.628 14.674-2.541-2.207c-.049 2.517-.872 4.976-2.385 7.123s-3.66 3.902-6.217 5.084h.012c.57 0 1.139-.03 1.705-.088 2.39-.848 4.502-2.196 6.147-3.926s2.771-3.785 3.278-5.985zM12.774 3.17 9.743.533c-2.709.91-5.04 2.509-6.686 4.588S.526 9.663.517 12.187c.01 2.789 1.09 5.495 3.07 7.69s4.745 3.754 7.859 4.43c2.78-2.942 4.407-6.579 4.646-10.38s-.924-7.569-3.319-10.757zM33.63 14.268c-.011-3.309-1.529-6.479-4.221-8.818s-6.342-3.658-10.15-3.668c-1.76-.002-3.504.281-5.146.832L32.67 18.737c.635-1.425.961-2.94.96-4.469z"/></symbol><symbol id="group-5" viewBox="0 0 65 32"><path fill="#2196f3" style="fill:var(--color2, #2196f3)" d="M10.018 9.982h-.002c-1.827 0-3.309 1.316-3.309 2.941v.002c0 1.624 1.481 2.941 3.309 2.941h.002c1.827 0 3.309-1.316 3.309-2.941v-.002c0-1.624-1.481-2.941-3.309-2.941zm24.423-.94c-.005-2.256-1.016-4.418-2.81-6.013S27.404.535 24.866.53c-2.539.004-4.973.902-6.768 2.497s-2.807 3.758-2.812 6.014V21.48s19.153-1.896 19.155-12.437v-.002zM0 25.563c.005 1.57.708 3.074 1.957 4.184s2.941 1.736 4.707 1.74c1.766-.005 3.458-.63 4.706-1.74s1.952-2.613 1.957-4.182V16.91S0 18.23 0 25.563zm6.663 1.551c-.345 0-.682-.091-.969-.261s-.511-.413-.643-.696-.167-.595-.099-.896.234-.577.478-.794.555-.365.893-.424c.338-.06.689-.029 1.008.088s.591.316.783.571c.192.255.294.555.294.862.001.204-.044.406-.131.595s-.216.36-.378.505c-.162.145-.355.259-.567.338s-.44.119-.669.119v-.006zm12.183-2.776v3.251h-.67v-3.251h.67zm1.294 1.388v.522h-1.478v-.522h1.478zm.157-1.388v.525h-1.634v-.525h1.634zm3.058 1.549v.154c0 .247-.033.469-.1.665s-.161.364-.284.502c-.122.137-.268.242-.438.315-.168.073-.355.109-.56.109-.204 0-.391-.036-.56-.109-.168-.073-.314-.178-.438-.315-.124-.138-.22-.306-.288-.502-.067-.196-.101-.418-.101-.665v-.154c0-.249.034-.47.101-.665.067-.196.161-.364.283-.502.124-.138.269-.244.438-.317.17-.073.357-.109.56-.109.205 0 .392.036.56.109.17.073.316.179.438.317.124.138.219.306.286.502.068.195.103.417.103.665zm-.676.154v-.159c0-.173-.016-.324-.047-.455s-.077-.241-.138-.33-.136-.156-.223-.201c-.088-.046-.188-.069-.301-.069s-.214.023-.301.069c-.086.045-.16.112-.221.201-.06.089-.105.199-.136.33s-.047.283-.047.455v.159c0 .171.016.323.047.455.031.131.077.242.138.333.061.089.135.157.223.203s.188.069.301.069c.113 0 .214-.023.301-.069s.161-.114.221-.203c.06-.091.105-.202.136-.333.031-.132.047-.284.047-.455zm2.851.697c0-.058-.009-.11-.027-.156-.016-.048-.048-.091-.094-.129-.046-.04-.111-.08-.194-.118s-.191-.079-.324-.121c-.147-.048-.287-.101-.42-.161-.131-.06-.247-.129-.348-.208-.1-.08-.179-.173-.237-.279-.057-.106-.085-.228-.085-.368 0-.135.03-.258.089-.368.06-.112.143-.207.25-.286.107-.08.234-.142.38-.185.147-.043.309-.065.485-.065.24 0 .449.043.627.129s.317.205.415.355c.1.15.15.322.15.516h-.665c0-.095-.02-.179-.06-.25-.039-.073-.098-.13-.179-.172-.079-.042-.179-.063-.299-.063-.116 0-.213.018-.29.054-.077.034-.136.081-.174.141-.039.058-.058.124-.058.196 0 .055.013.105.04.15.028.045.07.086.125.125s.123.075.203.109c.08.034.173.068.279.101.177.054.333.114.467.181.135.067.249.142.339.226s.159.178.205.284c.046.106.069.226.069.359 0 .141-.028.268-.083.38s-.135.206-.239.284c-.104.077-.228.136-.373.176s-.306.06-.484.06c-.161 0-.319-.021-.476-.063-.156-.043-.298-.108-.426-.194-.127-.086-.228-.196-.304-.33s-.114-.292-.114-.476h.672c0 .101.016.187.047.257s.075.127.132.17c.058.043.127.074.205.094.08.019.168.029.263.029.116 0 .211-.016.286-.049.076-.033.132-.078.167-.136.037-.058.056-.124.056-.196zm2.578-2.4v3.251h-.667v-3.251h.667zm1 0v.525h-2.652v-.525h2.652zm2.564 2.728v.522h-1.73v-.522h1.73zm-1.512-2.728v3.251h-.67v-3.251h.67zm1.286 1.324v.509h-1.505v-.509h1.505zm.223-1.324v.525h-1.728v-.525h1.728zm.393 0h1.212c.249 0 .462.037.641.112.18.074.318.185.415.33s.145.325.145.538c0 .174-.03.324-.089.449-.058.124-.141.227-.248.31-.106.082-.23.147-.373.196l-.212.112h-1.054l-.004-.522h.784c.118 0 .215-.021.292-.063s.135-.1.174-.174c.04-.074.06-.161.06-.259 0-.104-.019-.194-.058-.27s-.097-.134-.176-.174c-.079-.04-.178-.06-.297-.06h-.542v2.726h-.67v-3.251zm1.818 3.25-.741-1.449.708-.004.75 1.422v.031h-.717zm3.516-1.158h-.828v-.522h.828c.128 0 .232-.021.313-.063.08-.043.139-.103.176-.179s.056-.161.056-.257c0-.097-.019-.187-.056-.27s-.096-.15-.176-.201-.185-.076-.313-.076H36.8v2.726h-.67v-3.251h1.266c.255 0 .473.046.654.138.183.091.323.217.42.377s.145.345.145.552c0 .21-.048.391-.145.545s-.237.272-.42.355c-.182.083-.4.125-.654.125zm3.862.636v.522h-1.73v-.522h1.73zm-1.511-2.728v3.251h-.67v-3.251h.67zm1.286 1.324v.509h-1.505v-.509h1.505zm.223-1.324v.525h-1.728v-.525h1.728zm1.891 0v3.251h-.668v-3.251h.668zm1 0v.525h-2.652v-.525h2.652zm2.563 2.728v.522h-1.73v-.522h1.73zm-1.511-2.728v3.251h-.67v-3.251h.67zm1.285 1.324v.509h-1.505v-.509h1.505zm.224-1.324v.525H44.98v-.525h1.728zm.393 0h1.212c.249 0 .462.037.641.112.18.074.319.185.415.33s.145.325.145.538c0 .174-.03.324-.089.449-.058.124-.141.227-.248.31-.106.082-.23.147-.373.196l-.212.112h-1.054l-.005-.522h.784c.118 0 .215-.021.292-.063s.135-.1.174-.174c.04-.074.06-.161.06-.259 0-.104-.019-.194-.058-.27s-.097-.134-.176-.174c-.079-.04-.178-.06-.297-.06h-.542v2.726h-.67v-3.251zm1.817 3.25-.741-1.449.708-.004.75 1.422v.031h-.717zm2.804-.85c0-.058-.009-.11-.027-.156-.016-.048-.048-.091-.094-.129-.046-.04-.111-.08-.194-.118s-.191-.079-.324-.121c-.147-.048-.287-.101-.42-.161-.131-.06-.247-.129-.348-.208-.1-.08-.179-.173-.237-.279-.057-.106-.085-.228-.085-.368 0-.135.03-.258.089-.368.06-.112.143-.207.25-.286.107-.08.234-.142.38-.185.147-.043.309-.065.484-.065.24 0 .449.043.627.129s.317.205.415.355c.1.15.15.322.15.516h-.665c0-.095-.02-.179-.06-.25-.039-.073-.098-.13-.179-.172-.079-.042-.179-.063-.299-.063-.116 0-.213.018-.29.054-.077.034-.136.081-.174.141-.039.058-.058.124-.058.196 0 .055.013.105.04.15.028.045.07.086.125.125s.123.075.203.109c.08.034.173.068.279.101.177.054.333.114.467.181.135.067.249.142.339.226s.159.178.205.284c.046.106.069.226.069.359 0 .141-.028.268-.083.38s-.135.206-.239.284c-.104.077-.228.136-.373.176s-.306.06-.484.06c-.161 0-.319-.021-.476-.063-.156-.043-.298-.108-.426-.194-.127-.086-.228-.196-.304-.33s-.114-.292-.114-.476h.672c0 .101.016.187.047.257s.075.127.132.17c.058.043.127.074.205.094.08.019.168.029.263.029.116 0 .211-.016.286-.049.076-.033.132-.078.167-.136.037-.058.056-.124.056-.196z"/></symbol><symbol id="group-6" viewBox="0 0 43 32"><path fill="#afb1b8" style="fill:var(--color4, #afb1b8)" d="M3.239 26.376c.166.188.254.424.25.665.008.158-.022.315-.089.46s-.169.275-.298.38c-.322.223-.722.332-1.125.307H0v-4.215h1.937c.382-.023.761.076 1.073.28.125.096.224.217.289.354s.095.286.086.435c.011.233-.068.461-.225.645-.15.168-.358.284-.589.329.262.044.499.172.668.36zM.92 25.739h.828c.188.013.375-.037.526-.14.062-.052.111-.116.141-.187s.043-.148.036-.225c.006-.076-.007-.153-.037-.224s-.078-.135-.138-.188c-.156-.106-.349-.156-.542-.142H.92v1.106zm1.435 1.617c.066-.053.119-.119.153-.193s.049-.155.043-.235c.005-.081-.01-.163-.045-.238s-.088-.142-.155-.195c-.162-.11-.361-.164-.562-.152H.921v1.159H1.8c.198.011.394-.041.556-.146zm4.842.832L6.12 26.541h-.405v1.647h-.927v-4.215h1.754c.442-.028.879.1 1.221.358.245.229.393.53.417.85s-.078.637-.287.894c-.216.227-.512.378-.837.428l1.147 1.684H7.195zm-1.482-2.222h.758c.526 0 .789-.213.789-.638.005-.087-.009-.174-.042-.255s-.085-.156-.151-.218c-.166-.127-.38-.188-.596-.171h-.767l.009 1.283zm6.547 1.373h-1.847l-.326.848h-.972l1.696-4.168h1.05l1.689 4.168h-.972l-.319-.848zm-.247-.638-.675-1.779-.675 1.779h1.349zm6.587 1.487h-.92l-2.062-2.867v2.867h-.918v-4.215h.918l2.062 2.883v-2.883h.92v4.215zm5.25-1.009c-.19.318-.48.577-.832.743-.4.185-.845.276-1.293.266H20.09v-4.215h1.637c.448-.011.891.078 1.293.259.352.163.642.419.832.735.189.343.288.722.288 1.106s-.099.763-.288 1.106zm-1.053-.101c.263-.28.407-.637.407-1.006s-.144-.726-.407-1.006c-.317-.254-.731-.382-1.152-.358h-.639v2.729h.639c.42.024.834-.105 1.152-.358zM12.838.525s11.873 4.104 11.621 10.043v10.045s-11.864-4.106-11.617-10.045L12.837.525zm22.199 17.737c2.242-1.413 4.836-2.288 7.544-2.545v-3.145c-3.12 1.101-5.766 3.097-7.544 5.69z"/><path fill="#afb1b8" style="fill:var(--color4, #afb1b8)" d="M33.69 19.209c1.835-3.384 5.017-5.995 8.891-7.296V2.852S25.672 8.698 26.03 17.156v14.302s.753-.262 1.939-.752c0-.457 0-.918.054-1.382.35-3.926 2.389-7.565 5.668-10.115z"/><path fill="#afb1b8" style="fill:var(--color4, #afb1b8)" d="M32.081 24.522c.089-.992.287-1.973.592-2.928-2.042 2.203-3.278 4.936-3.536 7.815-.025.272-.038.544-.045.824.96-.422 2.078-.949 3.252-1.569-.3-1.362-.388-2.756-.263-4.141zm.673.052c-.113 1.253-.042 2.514.209 3.75 4.62-2.531 9.811-6.442 9.611-11.168v-.412c-3.301.338-6.389 1.659-8.79 3.76-.562 1.302-.909 2.674-1.03 4.069z"/></symbol><symbol id="group-7" viewBox="0 0 67 32"><path fill="#afb1b8" style="fill:var(--color4, #afb1b8)" d="M33.73 15.223c-.315-.419-.466-.915-.43-1.414v-2.051c0-.629.143-1.106.428-1.433s.775-.49 1.469-.488c.652 0 1.115.139 1.389.417.299.355.444.789.411 1.227v.482H35.83v-.488c.004-.16-.007-.32-.034-.478-.017-.108-.076-.208-.167-.284-.12-.081-.271-.121-.423-.111-.16-.01-.319.031-.445.117-.102.084-.169.193-.193.313-.033.167-.049.337-.046.507v2.489c-.018.24.033.48.15.699.058.074.139.133.233.169s.198.05.301.039c.15.011.298-.03.413-.113.095-.082.156-.188.174-.303.027-.165.039-.332.036-.499v-.505h1.167v.461c.033.456-.109.909-.403 1.289-.268.305-.725.457-1.397.457s-1.179-.163-1.467-.501zm4.859.021c-.295-.319-.442-.784-.442-1.4v-2.157c0-.609.147-1.07.442-1.383s.788-.469 1.479-.467c.686 0 1.177.156 1.471.467.295.313.445.774.445 1.383v2.157c0 .609-.15 1.076-.449 1.398s-.788.482-1.467.482-1.181-.163-1.479-.48zm2.022-.517c.106-.2.154-.419.14-.638v-2.641c.014-.215-.034-.43-.138-.626-.059-.075-.142-.135-.238-.172s-.203-.05-.308-.037c-.105-.013-.212 0-.309.037s-.18.096-.24.172c-.106.195-.154.41-.14.626v2.654c-.015.22.033.439.14.638.068.067.152.121.246.158s.196.056.3.056c.103 0 .206-.019.3-.056s.178-.091.246-.158v-.013zM43.387 9.9h1.256l.945 3.98.967-3.98h1.223l.123 5.744h-.904l-.097-3.992-.933 3.992h-.725l-.967-4.007-.089 4.007h-.913l.114-5.744zm5.923 0h1.957c1.128 0 1.691.544 1.691 1.631 0 1.042-.594 1.562-1.781 1.56h-.667v2.553h-1.208l.007-5.744zm1.672 2.455c.119.013.241.004.355-.028s.22-.084.309-.154c.139-.194.2-.422.174-.649.006-.175-.013-.351-.058-.521-.017-.057-.047-.111-.089-.158s-.093-.086-.153-.116c-.168-.069-.353-.101-.539-.092h-.469v1.717h.469zM54.7 9.9h1.297l1.331 5.744h-1.126l-.263-1.325h-1.157l-.271 1.325h-1.143L54.699 9.9zm1.109 3.755-.452-2.411-.452 2.411h.904zM58.404 9.9h.846l1.619 3.277V9.9h1.003v5.744h-.805l-1.629-3.421v3.421h-1.037l.002-5.744zm5.816 3.554-1.346-3.546h1.133l.822 2.278.771-2.278h1.109l-1.329 3.546v2.19h-1.16v-2.19zm-28.625 4.702v.3h-.986v2.334h-.413v-2.334h-.991v-.3h2.39zm3.091 2.635h-.319c-.032.002-.064-.007-.089-.025-.024-.015-.043-.036-.053-.06l-.285-.626h-1.368l-.285.626c-.008.026-.023.05-.044.071-.025.017-.057.026-.089.025h-.319l1.208-2.634h.42l1.223 2.624zm-2.001-.978h1.141l-.483-1.072c-.036-.081-.066-.164-.089-.248-.017.05-.031.098-.046.14l-.044.111-.478 1.07zm4.083.719c.076.003.151.003.227 0 .065-.006.13-.016.193-.031.059-.013.117-.029.174-.048.053-.019.106-.042.162-.065v-.593h-.483c-.012.001-.024-.001-.035-.005s-.021-.009-.03-.016c-.008-.006-.014-.013-.018-.022s-.006-.017-.006-.026v-.202h.937v1.01c-.077.047-.157.089-.242.125-.086.037-.176.067-.268.09-.099.025-.2.043-.302.054-.117.011-.235.017-.353.017-.208.002-.415-.032-.609-.098-.181-.063-.345-.156-.483-.275-.135-.12-.24-.262-.312-.417-.076-.175-.114-.36-.111-.547-.003-.188.034-.374.109-.551.069-.156.176-.298.312-.417.138-.119.302-.212.483-.273.207-.067.426-.1.648-.098.113 0 .225.008.336.023.098.014.195.036.288.067.084.027.166.062.242.104.074.041.144.087.21.138l-.116.163c-.009.015-.023.027-.039.036s-.036.014-.055.014c-.027-.001-.053-.008-.075-.021-.036-.017-.075-.038-.118-.063-.051-.028-.106-.052-.162-.071-.072-.025-.146-.045-.222-.058-.101-.016-.204-.024-.307-.023-.159-.002-.318.023-.466.073-.135.047-.256.118-.355.209-.1.095-.177.206-.225.328-.108.285-.108.593 0 .878.053.124.135.237.242.332.099.09.219.162.353.209.154.046.316.063.478.052zm3.852-.042h1.319v.3h-1.723v-2.635h.413l-.01 2.334zm2.692.301h-.413v-2.635h.413v2.635zm1.536-2.622c.025.012.046.028.063.048l1.766 1.986c-.002-.031-.002-.063 0-.094v-1.963h.36v2.645h-.208c-.031.002-.062-.003-.089-.015-.025-.013-.047-.03-.065-.05l-1.764-1.984v2.049h-.346v-2.635h.215c.023 0 .046.004.068.013zm5.231-.013v.29h-1.464v.87h1.186v.279h-1.186v.899h1.464v.29H52.19v-2.628h1.889zM10.783 1.886l18.346 4.497v15.759l-18.346-4.495V1.886zM9.607.543v17.87l20.697 5.075V5.62L9.607.543z"/><path fill="#afb1b8" style="fill:var(--color4, #afb1b8)" d="M20.7 31.784 0 26.705V8.836l20.7 5.077v17.871z"/><path fill="#afb1b8" style="fill:var(--color4, #afb1b8)" d="m9.95 1.684 18.107 4.441-7.7 6.65L2.248 8.332l7.703-6.648zM9.607.543 0 8.837l20.7 5.077 9.604-8.294L9.607.543zm12.257 30.236 8.44-7.288-8.44-2.071v9.359z"/></symbol><symbol id="instagram" viewBox="0 0 32 32"><path fill="#afb1b8" style="fill:var(--color4)" d="M31.969 9.408c-.075-1.7-.35-2.869-.744-3.882-.406-1.075-1.032-2.038-1.851-2.838-.8-.813-1.769-1.444-2.832-1.844C25.523.45 24.36.175 22.66.1 20.947.019 20.403 0 16.059 0s-4.888.019-6.595.094c-1.7.075-2.869.35-3.882.744-1.075.406-2.038 1.031-2.838 1.85C1.931 3.488 1.3 4.457.9 5.52.506 6.539.231 7.702.156 9.402c-.081 1.713-.1 2.257-.1 6.601s.019 4.888.094 6.595c.075 1.7.35 2.869.744 3.882.406 1.075 1.038 2.038 1.85 2.838.8.813 1.769 1.444 2.832 1.844 1.019.394 2.182.669 3.882.744 1.706.075 2.25.094 6.595.094s4.888-.019 6.595-.094c1.7-.075 2.869-.35 3.882-.744 2.151-.832 3.851-2.532 4.682-4.682.394-1.019.669-2.182.744-3.882.075-1.707.094-2.251.094-6.595s-.006-4.888-.081-6.595zm-2.882 13.065c-.069 1.563-.331 2.407-.55 2.969-.538 1.394-1.644 2.5-3.038 3.038-.563.219-1.413.481-2.969.55-1.688.075-2.194.094-6.464.094s-4.782-.019-6.464-.094c-1.563-.069-2.407-.331-2.969-.55-.694-.256-1.325-.663-1.838-1.194-.531-.519-.938-1.144-1.194-1.838-.219-.563-.481-1.413-.55-2.969-.075-1.688-.094-2.194-.094-6.464s.019-4.782.094-6.464c.069-1.563.331-2.407.55-2.969.256-.694.663-1.325 1.2-1.838.519-.531 1.144-.938 1.838-1.194.563-.219 1.413-.481 2.969-.55 1.688-.075 2.194-.094 6.464-.094 4.276 0 4.782.019 6.464.094 1.563.069 2.407.331 2.969.55.694.256 1.325.662 1.838 1.194.531.519.938 1.144 1.194 1.838.219.563.481 1.413.55 2.969.075 1.688.094 2.194.094 6.464s-.019 4.77-.094 6.458z"/><path fill="#afb1b8" style="fill:var(--color4)" d="M16.059 7.783c-4.538 0-8.22 3.682-8.22 8.22s3.682 8.22 8.22 8.22c4.539 0 8.22-3.682 8.22-8.22s-3.682-8.22-8.22-8.22zm0 13.552c-2.944 0-5.332-2.388-5.332-5.332s2.388-5.332 5.332-5.332 5.332 2.388 5.332 5.332-2.388 5.332-5.332 5.332zM26.524 7.458c0 1.06-.859 1.919-1.919 1.919s-1.919-.859-1.919-1.919.859-1.919 1.919-1.919 1.919.859 1.919 1.919z"/></symbol><symbol id="linkedin" viewBox="0 0 32 32"><path fill="#afb1b8" style="fill:var(--color4)" d="M31.992 32v-.001H32V20.263c0-5.741-1.236-10.164-7.948-10.164-3.227 0-5.392 1.771-6.276 3.449h-.093v-2.913h-6.364v21.364h6.627V21.42c0-2.785.528-5.479 3.977-5.479 3.399 0 3.449 3.179 3.449 5.657v10.401h6.62zM.528 10.636h6.635V32H.528V10.636zM3.843 0C1.722 0 0 1.721 0 3.843s1.721 3.879 3.843 3.879c2.121 0 3.843-1.757 3.843-3.879C7.685 1.722 5.963 0 3.843 0z"/></symbol><symbol id="smartphone" viewBox="0 0 32 32"><path fill="#757575" style="fill:var(--color3, #757575)" d="M23 0H9C7.346 0 6 1.346 6 3v26c0 1.654 1.346 3 3 3h14c1.654 0 3-1.346 3-3V3c0-1.654-1.346-3-3-3zM9 2h14c.552 0 1 .448 1 1v21H8V3c0-.552.448-1 1-1zm14 28H9c-.552 0-1-.448-1-1v-3h16v3c0 .552-.448 1-1 1z"/><path fill="#757575" style="fill:var(--color3, #757575)" d="M10.707 27.478c.391.365.391.956 0 1.321s-1.024.365-1.414 0c-.391-.365-.391-.956 0-1.321s1.024-.365 1.414 0z"/></symbol><symbol id="twitter" viewBox="0 0 32 32"><path fill="#afb1b8" style="fill:var(--color4)" d="M32 6.078c-1.19.522-2.458.868-3.78 1.036 1.36-.812 2.398-2.088 2.886-3.626-1.268.756-2.668 1.29-4.16 1.588C25.742 3.794 24.026 3 22.154 3c-3.632 0-6.556 2.948-6.556 6.562 0 .52.044 1.02.152 1.496-5.454-.266-10.28-2.88-13.522-6.862-.566.982-.898 2.106-.898 3.316 0 2.272 1.17 4.286 2.914 5.452-1.054-.02-2.088-.326-2.964-.808v.072c0 3.188 2.274 5.836 5.256 6.446-.534.146-1.116.216-1.72.216-.42 0-.844-.024-1.242-.112.85 2.598 3.262 4.508 6.13 4.57-2.232 1.746-5.066 2.798-8.134 2.798-.538 0-1.054-.024-1.57-.09C2.906 27.93 6.35 29 10.064 29c12.072 0 18.672-10 18.672-18.668 0-.29-.01-.57-.024-.848C30.014 8.56 31.108 7.406 32 6.078z"/></symbol></defs></svg>