<svg aria-hidden="true" style="position:absolute;width:0;height:0;overflow:hidden" xmlns="http://www.w3.org/2000/svg"><defs><symbol id="antenna" viewBox="0 0 32 32"><path fill="#212121" style="fill:var(--color1, #212121)" d="m30.78 22.103-8.445-8.507.937-4.617c.242.094.499.144.759.146h.006a2.16 2.16 0 1 0-2.009-1.436l-4.961.605L8.975.159a.534.534 0 0 0-.377-.16.532.532 0 0 0-.373.155L6.712 1.658a.534.534 0 0 0 0 .754l.814.826a14.946 14.946 0 0 0 2.52 17.667.513.513 0 0 0 .146.098 3.052 3.052 0 0 0-.052.547v6.188H3.739a2.67 2.67 0 0 0-2.667 2.667v1.067c0 .295.239.533.533.533h24.539a.533.533 0 0 0 .533-.533v-1.067a2.67 2.67 0 0 0-2.667-2.667h-6.401v-2.742c1.003.21 2.025.318 3.049.32a14.863 14.863 0 0 0 7.042-1.784l.818.823a.534.534 0 0 0 .377.16.532.532 0 0 0 .373-.155l1.513-1.504a.534.534 0 0 0 0-.754zM23.285 6.234a1.066 1.066 0 1 1 .752 1.823h-.003a1.067 1.067 0 0 1-.746-1.823h-.002zM22.029 9.74l-.599 2.946-1.176-1.183 1.774-1.764zm-.606-.902-1.92 1.909-1.486-1.494 3.406-.416zm2.586 19.968a1.6 1.6 0 0 1 1.6 1.6v.533H2.137v-.533a1.6 1.6 0 0 1 1.6-1.6h20.271zm-7.468-2.133v1.067h-5.335v-1.067h5.335zm-5.334-1.067v-4.054c0-1.294 1.197-2.347 2.667-2.347s2.667 1.053 2.667 2.347v4.054h-5.335zm6.401-1.697v-2.358c0-1.883-1.675-3.414-3.734-3.414a3.802 3.802 0 0 0-3.282 1.787A13.872 13.872 0 0 1 8.313 4.033l18.606 18.713a13.819 13.819 0 0 1-9.311 1.163zm11.292-.684L7.838 2.039l.755-.752 7.937 7.982c.004 0 .006.007.01.01l13.118 13.194-.757.752z"/><path fill="#2196f3" style="fill:var(--color2, #2196f3)" d="M13.879 20.271h-.005a1.601 1.601 0 0 0-.005 3.201h.005a1.601 1.601 0 0 0 .005-3.201zm.373 1.979a.534.534 0 0 1-.752-.756.534.534 0 0 1 .373-.155.534.534 0 0 1 .374.911h.005z"/></symbol><symbol id="astronaut" viewBox="0 0 32 32"><path fill="#2196f3" style="fill:var(--color2, #2196f3)" d="M31.981 4.525a.534.534 0 0 0-.43-.363l-1.911-.278-.855-1.732c-.179-.365-.777-.365-.956 0l-.855 1.732-1.911.278a.534.534 0 0 0-.296.91L26.15 6.42l-.326 1.903c-.034.2.048.402.212.522a.53.53 0 0 0 .562.04l1.709-.899 1.709.899a.536.536 0 0 0 .775-.563l-.326-1.903 1.383-1.348a.536.536 0 0 0 .135-.547zm-2.463 1.327a.534.534 0 0 0-.153.472l.191 1.114-1.001-.526a.533.533 0 0 0-.498 0l-1.001.526.191-1.114a.534.534 0 0 0-.153-.472l-.81-.79 1.119-.163a.532.532 0 0 0 .402-.292l.5-1.014.5 1.014a.535.535 0 0 0 .402.292l1.119.163-.809.79zm-3.379 14.675h-1.067v1.067h1.067v-1.067zm0 2.134h-1.067v1.067h1.067v-1.067zm1.067-1.067h-1.067v1.067h1.067v-1.067zm-2.134 0h-1.067v1.067h1.067v-1.067zm-2.667 4.801h-1.067v1.067h1.067v-1.067zm0 2.134h-1.067v1.067h1.067v-1.067zm1.067-1.067h-1.067v1.067h1.067v-1.067zm-2.134 0h-1.067v1.067h1.067v-1.067zm-5.334-3.201h-1.067v1.067h1.067v-1.067zm0 2.134h-1.067v1.067h1.067v-1.067zm1.066-1.067h-1.067v1.067h1.067v-1.067zm-2.133 0H13.87v1.067h1.067v-1.067zM5.868 6.123H4.801V7.19h1.067V6.123zm0 2.134H4.801v1.067h1.067V8.257zM6.935 7.19H5.868v1.067h1.067V7.19zm-2.134 0H3.734v1.067h1.067V7.19z"/><path fill="#212121" style="fill:var(--color1, #212121)" d="M24.72 14.163a1.774 1.774 0 0 0-1.189-.705 1.778 1.778 0 0 0-1.34.352l-1.253.96-1.898 1.417-1.358-.541c2.422-1.087 4.115-3.509 4.115-6.322 0-3.824-3.123-6.935-6.963-6.935S7.871 5.5 7.871 9.324c0 1.386.414 2.675 1.12 3.759l-2.769-.024c-.009 0-.015.004-.023.005a.515.515 0 0 0-.155.031l-.038.013c-.006.003-.013.003-.019.006l-3.234 1.597-.001.001-1.894.911a.397.397 0 0 0-.063.035 1.781 1.781 0 0 0 .457 3.185 1.783 1.783 0 0 0 1.379-.128l1.388-.738 2.265-1.169 1.357-.008-5.443 5.417-.002.001-1.339 1.334c-.316.315-.49.732-.49 1.178s.174.864.49 1.179a1.674 1.674 0 0 0 2.36 0L4.531 24.6l1.741-1.3.901.897-1.762 1.755-.002.001-1.339 1.334c-.316.315-.49.732-.49 1.178s.174.864.49 1.179c.325.323.753.485 1.18.485s.855-.162 1.181-.485l3.482-3.467.001-.002 1.01-1-.004-.004c.006-.006.015-.009.022-.015l5.167-5.659 3.472.494a.52.52 0 0 0 .262-.033c.018-.006.033-.015.05-.023.019-.01.039-.015.058-.027l3.214-2.134c.012-.008.018-.021.029-.029.013-.01.029-.014.041-.026l1.272-1.191c.662-.62.753-1.636.212-2.362zM2.131 17.774a.714.714 0 0 1-.558.052.717.717 0 0 1-.213-1.26l1.314-.632.449 1.313-.992.528zm3.498-1.828-1.549.8-.439-1.284 2.027-1.001-.04 1.484zm15.103-6.622c0 .919-.219 1.785-.599 2.56l-4.182-1.9a1.863 1.863 0 0 0-.788-1.388l1.464-4.861c2.378.756 4.105 2.975 4.105 5.589zm-11.792 0c0-3.235 2.645-5.868 5.896-5.868.253 0 .5.021.745.052l-1.432 4.755c-.019-.001-.037-.006-.057-.006-1.033 0-1.873.838-1.873 1.867s.84 1.867 1.873 1.867c.695 0 1.295-.384 1.618-.945l3.863 1.755a5.892 5.892 0 0 1-4.738 2.39c-3.251 0-5.896-2.633-5.896-5.868zm5.958.8c0 .441-.362.8-.806.8s-.806-.359-.806-.8c0-.441.362-.8.806-.8s.806.359.806.8zM2.465 25.152a.61.61 0 0 1-.855.001.594.594 0 0 1 0-.844l.962-.959.851.848-.959.955zm3.215 3.734a.608.608 0 0 1-.855.001.592.592 0 0 1 0-.844l.963-.959.852.848-.96.955zm3.482-3.47-.002.001-1.765 1.76-.852-.848 1.764-1.756.002-.001c.04-.04.065-.088.09-.135.007-.014.02-.026.026-.04.017-.041.019-.085.026-.129.003-.025.014-.047.014-.073 0-.036-.013-.07-.02-.106-.006-.032-.006-.065-.019-.095a.55.55 0 0 0-.091-.138c-.01-.012-.014-.027-.025-.038h-.001l-.001-.002-1.607-1.6c-.017-.017-.039-.024-.058-.038a.507.507 0 0 0-.087-.058.515.515 0 0 0-.093-.033.507.507 0 0 0-.103-.02.5.5 0 0 0-.095.005.53.53 0 0 0-.104.02.477.477 0 0 0-.094.045c-.02.011-.042.015-.061.029L4.232 23.49l-.901-.897 2.4-2.387 4.362 4.29-.928.919zm6.821-7.018c-.015-.002-.03.004-.045.003a.556.556 0 0 0-.3.075.492.492 0 0 0-.083.061c-.013.011-.028.017-.04.029l-4.699 5.147-4.329-4.258 2.834-2.819a.534.534 0 0 0-.379-.911v-.001l-2.219.013.028-1.608 3.105.027a6.95 6.95 0 0 0 4.982 2.101c.437 0 .864-.045 1.28-.123.04.032.079.065.13.085l2.41.96.331 1.644-3.003-.427zm4.042.178-.313-1.558 1.447-1.08.947 1.257-2.081 1.382zm3.754-2.831-.838.785-.931-1.237.832-.637a.735.735 0 0 1 .543-.143.718.718 0 0 1 .48.284.713.713 0 0 1-.085.947z"/><path fill="#212121" style="fill:var(--color1, #212121)" d="m13.605 18.548-2.143-2.134a.534.534 0 0 0-.753 0l-2.143 2.134a.537.537 0 0 0 0 .756l2.143 2.134a.536.536 0 0 0 .753 0l2.143-2.134a.535.535 0 0 0 0-.756zm-2.519 1.76-1.387-1.381 1.387-1.381 1.387 1.381-1.387 1.381zm6.082-15.236-.258 1.036c.071.018 1.738.452 1.738 2.149h1.067c0-2.018-1.666-2.966-2.547-3.185zm2.547 4.252h-1.067v1.067h1.067V9.324z"/></symbol><symbol id="clock" viewBox="0 0 32 32"><path fill="#212121" style="fill:var(--color1, #212121)" d="M31.304 15.305C31.302 6.851 24.447-.001 15.993 0S.687 6.857.688 15.311A15.307 15.307 0 0 0 11.34 29.89a.668.668 0 0 0 .53-.065.636.636 0 0 0 .283-.357l3.866-12.253A1.914 1.914 0 0 0 16 13.388a1.894 1.894 0 0 0-.82.191l-5.107-5.108a.637.637 0 0 0-.902.902l5.104 5.11c-.392.8-.168 1.765.537 2.31l-3.683 11.675C3.85 25.787.122 17.712 2.804 10.432S13.56-.575 20.84 2.107s11.007 10.757 8.325 18.036a14.046 14.046 0 0 1-7.464 7.975l-.398-1.875a.637.637 0 0 0-1.049-.344l-3.838 3.426a.638.638 0 0 0 .231 1.085l4.9 1.564a.637.637 0 0 0 .819-.74l-.391-1.84a15.258 15.258 0 0 0 9.331-14.092zm-15.308-.638a.638.638 0 1 1 0 1.277.638.638 0 0 1 0-1.277zm2.101 14.867 2.185-1.949.603 2.841-2.788-.892z"/><path fill="#2196f3" style="fill:var(--color2, #2196f3)" d="M15.358 3.186v1.276a.638.638 0 1 0 1.276 0V3.186a.638.638 0 0 0-1.276 0zM3.877 14.667a.638.638 0 0 0 0 1.276h1.276a.638.638 0 0 0 0-1.276H3.877zm24.237 1.276a.638.638 0 0 0 0-1.276h-1.276a.638.638 0 0 0 0 1.276h1.276z"/></symbol><symbol id="diagram" viewBox="0 0 32 32"><path fill="#2196f3" style="fill:var(--color2, #2196f3)" d="M14.929 14.968h1.066v4.799h-1.066v-4.799zm4.265 2.133h1.066v2.666h-1.066v-2.666zM10.663 18.7h1.066v1.066h-1.066V18.7zm-3.199-.533H8.53v1.599H7.464v-1.599z"/><path fill="#212121" style="fill:var(--color1, #212121)" d="M1.6 28.297h25.592a1.6 1.6 0 0 0 1.599-1.6v-2.133a1.6 1.6 0 0 0-1.599-1.6h-.533V9.668l3.029-2.869a1.61 1.61 0 1 0-.747-.763l-2.282 2.163v-1.23a1.6 1.6 0 0 0-1.6-1.6H3.732a1.6 1.6 0 0 0-1.6 1.6v15.995h-.533a1.6 1.6 0 0 0-1.6 1.6v2.133a1.6 1.6 0 0 0 1.6 1.6zM30.391 4.838a.533.533 0 1 1 0 1.067.533.533 0 0 1 0-1.067zM3.199 6.97c0-.294.239-.533.533-.533h21.327c.294 0 .533.239.533.533v2.239l-1.066 1.013V8.036a.533.533 0 0 0-.533-.533H4.799a.533.533 0 0 0-.533.533v13.329c0 .294.239.533.533.533h19.194a.533.533 0 0 0 .533-.533v-9.677l1.066-1.01v12.286H3.199V6.969zm4.799 6.932a1.6 1.6 0 0 0-.821 2.975 1.6 1.6 0 0 0 1.929-.226l1.853.93a.534.534 0 0 0 .637-.123l3.94-4.432 3.873 2.902a.533.533 0 0 0 .686-.039l3.366-3.188v8.133H5.333V8.571h18.128v2.661l-3.772 3.572-3.905-2.928a.533.533 0 0 0-.718.072l-3.994 4.494-1.493-.747c.011-.064.018-.129.02-.193a1.6 1.6 0 0 0-1.6-1.6zm.533 1.599a.533.533 0 1 1-1.067 0 .533.533 0 0 1 1.067 0zm3.199 8.531h5.332v.533a.533.533 0 0 1-.533.533h-4.265a.533.533 0 0 1-.533-.533v-.533zm-10.664.533c0-.294.239-.533.533-.533h9.064v.533a1.6 1.6 0 0 0 1.6 1.6h4.265a1.6 1.6 0 0 0 1.6-1.6v-.533h9.064c.294 0 .533.239.533.533v2.133a.533.533 0 0 1-.533.533H1.6a.533.533 0 0 1-.533-.533v-2.133z"/></symbol><symbol id="envelope" viewBox="0 0 43 32"><path fill="#757575" style="fill:var(--color3, #757575)" d="M38.704-.016H4.003A4.008 4.008 0 0 0-.001 3.988v24.023a4.008 4.008 0 0 0 4.004 4.004h34.701a4.008 4.008 0 0 0 4.004-4.004V3.988a4.008 4.008 0 0 0-4.004-4.004zm0 2.67c.181 0 .354.038.511.103L21.353 18.238 3.491 2.757c.158-.066.33-.103.512-.103h34.701zm0 26.692H4.003a1.336 1.336 0 0 1-1.335-1.335V5.576l17.81 15.436a1.332 1.332 0 0 0 1.75 0l17.81-15.436v22.435c0 .736-.598 1.335-1.335 1.335z"/></symbol><symbol id="facebook" viewBox="0 0 32 32"><path fill="#afb1b8" style="fill:var(--color4, #afb1b8)" d="M21.338 5.315h2.923V.225C23.757.156 22.023 0 20.003 0c-4.214 0-7.1 2.65-7.1 7.522v4.483h-4.65v5.69h4.65v14.318h5.701V17.697h4.462l.708-5.69h-5.171v-3.92c.001-1.645.444-2.77 2.736-2.77z"/></symbol><symbol id="instagram" viewBox="0 0 32 32"><path fill="#afb1b8" style="fill:var(--color4, #afb1b8)" d="M31.981 9.412c-.075-1.701-.35-2.87-.744-3.884a7.814 7.814 0 0 0-1.851-2.839A7.874 7.874 0 0 0 26.553.844C25.534.45 24.371.175 22.67.1 20.956.019 20.412 0 16.066 0s-4.89.019-6.598.094c-1.701.075-2.87.35-3.883.744a7.801 7.801 0 0 0-2.839 1.851A7.887 7.887 0 0 0 .901 5.522C.507 6.541.232 7.704.157 9.405c-.081 1.714-.1 2.258-.1 6.604s.019 4.89.094 6.598c.075 1.701.35 2.87.744 3.884a7.888 7.888 0 0 0 1.851 2.839 7.882 7.882 0 0 0 2.833 1.845c1.019.394 2.182.669 3.884.744 1.707.075 2.251.094 6.598.094s4.89-.019 6.598-.094c1.701-.075 2.87-.35 3.883-.744a8.191 8.191 0 0 0 4.684-4.684c.394-1.019.669-2.183.744-3.884.075-1.707.094-2.251.094-6.598s-.006-4.89-.081-6.598zm-2.883 13.07c-.069 1.564-.331 2.408-.55 2.97a5.31 5.31 0 0 1-3.039 3.039c-.563.219-1.413.481-2.97.55-1.689.075-2.195.094-6.466.094s-4.784-.019-6.466-.094c-1.563-.069-2.408-.331-2.97-.55a4.908 4.908 0 0 1-1.838-1.195 4.976 4.976 0 0 1-1.195-1.838c-.219-.563-.481-1.413-.55-2.97-.075-1.689-.094-2.195-.094-6.467s.019-4.784.094-6.466c.069-1.563.331-2.408.55-2.97a4.862 4.862 0 0 1 1.201-1.839 4.961 4.961 0 0 1 1.838-1.194c.563-.219 1.413-.481 2.97-.55 1.688-.075 2.195-.094 6.466-.094 4.278 0 4.784.019 6.466.094 1.564.069 2.408.332 2.971.55a4.918 4.918 0 0 1 1.838 1.194 4.984 4.984 0 0 1 1.195 1.839c.219.563.481 1.413.55 2.97.075 1.688.094 2.195.094 6.466s-.019 4.772-.094 6.46z"/><path fill="#afb1b8" style="fill:var(--color4, #afb1b8)" d="M16.066 7.786c-4.54 0-8.224 3.683-8.224 8.224s3.684 8.224 8.224 8.224 8.224-3.683 8.224-8.224-3.683-8.224-8.224-8.224zm0 13.558a5.335 5.335 0 0 1 0-10.668 5.335 5.335 0 0 1 0 10.668zM26.534 7.461a1.92 1.92 0 1 1-3.841-.001 1.92 1.92 0 0 1 3.841.001z"/></symbol><symbol id="linkedin" viewBox="0 0 32 32"><path fill="#afb1b8" style="fill:var(--color4, #afb1b8)" d="M32.005 32.013v-.001h.008V20.271c0-5.744-1.236-10.168-7.951-10.168-3.228 0-5.394 1.771-6.278 3.451h-.093V10.64h-6.367v21.372h6.629V21.429c0-2.786.528-5.481 3.979-5.481 3.4 0 3.451 3.18 3.451 5.66v10.405h6.623zM.528 10.64h6.637v21.372H.528V10.64zM3.844 0C1.722 0 0 1.722 0 3.844s1.722 3.88 3.844 3.88 3.844-1.758 3.844-3.88A3.847 3.847 0 0 0 3.844 0z"/></symbol><symbol id="Logo-1" viewBox="0 0 57 32"><path fill="#afb1b8" style="fill:var(--color4, #afb1b8)" d="M26.731 3.163h-.073a7.542 7.542 0 0 0-.336-.012h-.243c-.212 0-.428.005-.642.016a.4.4 0 0 0-.049 0c-1.944.11-3.849.596-5.609 1.431l-.231.111v11.81l.54-.183a20.64 20.64 0 0 1 1.5-.445 18.348 18.348 0 0 1 4.318-.574v1.552c-.193.001-.381.007-.568.016h-.045a17.195 17.195 0 0 0-3.322.51 16.882 16.882 0 0 0-3.958 1.542V3.79a15.857 15.857 0 0 1 4.152-1.689c1.279-.33 2.593-.5 3.913-.505h.228c.273.007.538.019.788.038.658.046 1.31.15 1.95.311v1.527a12.05 12.05 0 0 0-1.889-.285l-.039-.003c-.132-.011-.263-.022-.386-.022zm2.688 1.561c.339.026.69.038 1.044.038a16.743 16.743 0 0 0 4.114-.528 16.9 16.9 0 0 0 3.956-1.544v14.877a15.912 15.912 0 0 1-4.153 1.689 15.948 15.948 0 0 1-3.913.503c-1 .008-1.997-.11-2.969-.35V4.435c.229.053.465.102.706.142.394.066.81.115 1.214.145zm7.572.116-.54.182c-.497.167-.997.316-1.501.449-1.465.377-2.971.57-4.484.575-.352 0-.676-.01-.989-.03l-.43-.028v12.149l.37.033c.343.03.696.045 1.053.045a14.357 14.357 0 0 0 3.531-.457c.95-.238 1.874-.57 2.76-.992l.231-.111V4.841zM19.063 24.114a.793.793 0 0 0-.601-.243.895.895 0 0 0-.347.065c-.101.04-.193.101-.27.178s-.136.17-.174.271a.893.893 0 0 0-.062.335v2.024a.94.94 0 0 0 .08.415.718.718 0 0 0 .48.415c.098.028.2.042.302.042a.855.855 0 0 0 .839-.852v-.227h-.529v.18a.458.458 0 0 1-.031.18.315.315 0 0 1-.077.114.38.38 0 0 1-.222.077.266.266 0 0 1-.249-.109.479.479 0 0 1-.07-.271v-1.887a.643.643 0 0 1 .065-.302c.027-.043.066-.077.112-.098s.097-.03.147-.024a.28.28 0 0 1 .236.114c.059.078.09.173.088.271v.175h.524v-.206a.953.953 0 0 0-.242-.639zm3.142-.023a.92.92 0 0 0-1.197 0 .814.814 0 0 0-.205.284.959.959 0 0 0-.077.392v1.941a.932.932 0 0 0 .077.397.791.791 0 0 0 .205.271.837.837 0 0 0 .279.171.897.897 0 0 0 .918-.171.849.849 0 0 0 .2-.271.934.934 0 0 0 .077-.397v-1.941a.943.943 0 0 0-.077-.392.882.882 0 0 0-.2-.284zm-.247 2.617a.355.355 0 0 1-.105.28.386.386 0 0 1-.498 0 .352.352 0 0 1-.105-.28v-1.941a.355.355 0 0 1 .105-.28.386.386 0 0 1 .498 0 .352.352 0 0 1 .105.28v1.941zm4.375.867v-3.674h-.509l-.668 1.945h-.009l-.673-1.945h-.503v3.675h.525v-2.235h.009l.514 1.58h.262l.518-1.58h.009v2.235h.525zm2.982-3.417a.727.727 0 0 0-.297-.201 1.17 1.17 0 0 0-.381-.057h-.78v3.675h.524V26.14h.27a.964.964 0 0 0 .472-.1.759.759 0 0 0 .287-.281.881.881 0 0 0 .12-.32c.021-.138.03-.278.028-.418a2.107 2.107 0 0 0-.051-.525.785.785 0 0 0-.193-.338zm-.27 1.12a.45.45 0 0 1-.049.191.296.296 0 0 1-.135.129.538.538 0 0 1-.247.046h-.239v-1.249h.27a.506.506 0 0 1 .236.046.3.3 0 0 1 .123.136.537.537 0 0 1 .046.205v.244c0 .085.005.174 0 .252h-.005zm2.75-1.378h-.429l-.81 3.675h.524l.154-.789h.714l.154.789h.524l-.83-3.675zm-.483 2.385.258-1.332h.009l.256 1.332h-.524zm3.866-.171h-.009l-.791-2.214h-.503v3.675h.524v-2.21h.011l.8 2.21h.492V23.9h-.524v2.214zm3.2-2.214-.421 1.461h-.011l-.421-1.461h-.555l.719 2.121v1.553h.524v-1.553l.719-2.121h-.555zm-20.775 4.712h.252v.708h.171v-.708h.251v-.145h-.675v.145zm2.121-.145-.331.853h.182l.07-.194h.34l.073.194h.186l-.339-.853h-.182zm-.027.516.116-.316.116.316h-.232zm2.124.023h.197v.11a.332.332 0 0 1-.202.072c-.034.002-.069-.004-.1-.019s-.059-.036-.081-.063a.352.352 0 0 1-.063-.222c0-.19.082-.285.246-.285.043-.004.086.007.121.032s.061.062.072.104l.169-.033c-.036-.167-.157-.251-.362-.251a.426.426 0 0 0-.298.11.413.413 0 0 0-.122.328.465.465 0 0 0 .109.32.408.408 0 0 0 .324.125.511.511 0 0 0 .362-.136v-.336h-.37v.144zm2.141-.539h-.173v.853h.598v-.145h-.425v-.708zm1.811 0H25.6v.853h.173v-.853zm1.771.57-.349-.57h-.167v.853h.161v-.557l.343.557h.171v-.853h-.158v.57zm1.6-.092h.425V28.8h-.425v-.187h.457v-.145h-.63v.853h.648v-.145h-.475v-.231zm3.881-.141h-.336v-.336h-.171v.853h.171v-.373h.336v.373h.171v-.853h-.171v.336zm1.61.141h.426V28.8h-.426v-.187h.459v-.145h-.63v.853h.646v-.145h-.475v-.231zm2.183 0c.148-.023.224-.102.224-.237a.203.203 0 0 0-.084-.189.479.479 0 0 0-.25-.05h-.362v.853h.171v-.357h.034a.231.231 0 0 1 .107.019.181.181 0 0 1 .061.062l.186.271h.205l-.104-.167a.6.6 0 0 0-.189-.205zm-.173-.118h-.127v-.214h.135a.445.445 0 0 1 .174.02c.012.011.022.025.029.04a.116.116 0 0 1-.004.097.114.114 0 0 1-.032.037.486.486 0 0 1-.174.02zm1.819.118h.425V28.8h-.425v-.187h.459v-.145h-.632v.853h.648v-.145h-.475v-.231z"/></symbol><symbol id="Logo-2" viewBox="0 0 57 32"><path fill="#afb1b8" style="fill:var(--color4, #afb1b8)" d="M19.419 26.189c.008 0 .017.002.025.005s.015.007.02.013l.116.111a.955.955 0 0 1-.327.211 1.299 1.299 0 0 1-.464.076 1.213 1.213 0 0 1-.436-.071.942.942 0 0 1-.329-.2.878.878 0 0 1-.212-.308 1.02 1.02 0 0 1-.074-.396.91.91 0 0 1 .305-.705 1.06 1.06 0 0 1 .349-.201c.143-.048.296-.072.449-.071.143-.003.285.019.417.064.115.043.221.104.313.178l-.097.119a.085.085 0 0 1-.025.021.066.066 0 0 1-.039.009.086.086 0 0 1-.042-.013l-.052-.032-.073-.04a.818.818 0 0 0-.229-.071 1.11 1.11 0 0 0-.173-.013.952.952 0 0 0-.323.053.683.683 0 0 0-.417.387.81.81 0 0 0-.06.313.803.803 0 0 0 .06.319.68.68 0 0 0 .402.383.867.867 0 0 0 .3.05c.059.001.119-.003.177-.01a.69.69 0 0 0 .384-.163.09.09 0 0 1 .055-.02zm3.36-.559a.959.959 0 0 1-.079.393c-.047.114-.122.218-.219.305s-.214.155-.344.2a1.42 1.42 0 0 1-.884 0 1.027 1.027 0 0 1-.342-.201.904.904 0 0 1-.221-.308 1.022 1.022 0 0 1 0-.787.94.94 0 0 1 .221-.31c.097-.084.214-.15.342-.193.284-.096.6-.096.884 0 .129.046.246.114.343.201a.907.907 0 0 1 .299.701zm-.305 0a.84.84 0 0 0-.055-.316.653.653 0 0 0-.402-.385 1.025 1.025 0 0 0-.643 0 .683.683 0 0 0-.246.149.63.63 0 0 0-.157.236.927.927 0 0 0 0 .632.643.643 0 0 0 .403.384c.207.067.436.067.643 0a.698.698 0 0 0 .246-.148.662.662 0 0 0 .156-.236.82.82 0 0 0 .055-.316zm2.597.331.03.071.033-.071a.68.68 0 0 1 .038-.07l.743-1.174c.015-.02.028-.033.042-.037a.207.207 0 0 1 .061-.006h.22v1.909h-.26V25.12a.726.726 0 0 1 0-.066l-.748 1.19c-.009.018-.025.033-.044.043s-.041.016-.064.016h-.042c-.023 0-.045-.005-.064-.016s-.034-.026-.044-.044l-.769-1.198v1.533h-.252v-1.905h.22a.207.207 0 0 1 .061.006.087.087 0 0 1 .041.037l.759 1.175a.418.418 0 0 1 .038.068zm2.797-.095v.715h-.291v-1.907h.649c.122-.002.245.012.362.042a.724.724 0 0 1 .256.119.492.492 0 0 1 .145.187.576.576 0 0 1 .049.244.54.54 0 0 1-.211.435.752.752 0 0 1-.257.126 1.252 1.252 0 0 1-.351.044l-.352-.005zm0-.204h.352a.808.808 0 0 0 .225-.029.52.52 0 0 0 .163-.082.358.358 0 0 0 .134-.286c.003-.053-.007-.106-.029-.155s-.057-.094-.102-.13a.624.624 0 0 0-.391-.102h-.352v.786zm3.909.922h-.23a.109.109 0 0 1-.064-.018.123.123 0 0 1-.038-.044l-.198-.461h-.993l-.205.461a.107.107 0 0 1-.101.062h-.23l.873-1.909h.302l.884 1.909zm-1.44-.709h.82l-.346-.777a1.276 1.276 0 0 1-.065-.179l-.034.1a.98.98 0 0 1-.032.081l-.343.776zm2.696-1.191c.017.008.032.02.044.034l1.273 1.439v-1.482h.26v1.909h-.145a.136.136 0 0 1-.06-.011.165.165 0 0 1-.047-.035L33.087 25.1a.726.726 0 0 1 0 .066v1.419h-.26v-1.909h.154a.15.15 0 0 1 .052.009zm3.721 1.141v.758h-.291v-.758l-.804-1.15h.26a.114.114 0 0 1 .063.016.159.159 0 0 1 .039.043l.503.742a.717.717 0 0 1 .088.169l.038-.082a.745.745 0 0 1 .049-.087l.496-.747a.18.18 0 0 1 .038-.04.098.098 0 0 1 .063-.019h.263l-.806 1.155zm-11.827-4.354c.127.014.255.025.384.035 1.962-.763 3.622-2.011 4.773-3.589s1.74-3.415 1.695-5.283l-2.163-1.879c.44 1.988.234 4.043-.594 5.936s-2.246 3.547-4.095 4.779z"/><path fill="#afb1b8" style="fill:var(--color4, #afb1b8)" d="m24.155 21.383.058.01c1.976-1.228 3.482-2.942 4.324-4.922s.981-4.133.4-6.182l-3.08-2.676c1.246 2.2 1.747 4.662 1.446 7.099s-1.393 4.751-3.148 6.671zm10.446-6.542c-.523 2.052-1.794 3.902-3.624 5.277-.534.404-1.111.763-1.722 1.074 1.49-.381 2.86-1.053 4.003-1.966s2.03-2.042 2.592-3.3l-1.249-1.084z"/><path fill="#afb1b8" style="fill:var(--color4, #afb1b8)" d="m34.111 14.539-1.779-1.545c-.034 1.762-.611 3.484-1.67 4.987s-2.562 2.732-4.353 3.559h.009c.399 0 .798-.021 1.194-.062 1.674-.593 3.152-1.538 4.303-2.748s1.94-2.65 2.295-4.19zm-9.699-8.055L22.29 4.638c-1.897.637-3.528 1.756-4.681 3.212s-1.772 3.18-1.778 4.947c.007 1.952.763 3.847 2.149 5.384s3.322 2.628 5.502 3.101c1.946-2.06 3.086-4.606 3.253-7.267s-.647-5.299-2.323-7.531zm14.602 7.77c-.008-2.316-1.07-4.536-2.955-6.174s-4.44-2.561-7.106-2.568a11.3 11.3 0 0 0-3.602.582l12.992 11.288a7.651 7.651 0 0 0 .672-3.129z"/></symbol><symbol id="Logo-3" viewBox="0 0 57 32"><path fill="#fff" style="fill:var(--color5, #fff)" d="M0 0h56.533v32H0V0z"/><path fill="#2196f3" style="fill:var(--color2, #2196f3)" d="M12.878 11.255h-.002c-1.279 0-2.316.921-2.316 2.058v.001c0 1.137 1.037 2.058 2.316 2.058h.002c1.279 0 2.316-.921 2.316-2.058v-.001c0-1.137-1.037-2.058-2.316-2.058zM29.971 10.597c-.004-1.579-.711-3.092-1.967-4.208s-2.958-1.745-4.735-1.749c-1.777.003-3.48.631-4.737 1.748s-1.964 2.63-1.968 4.209v8.706s13.405-1.327 13.406-8.704v-.001zM5.867 22.16c.003 1.098.496 2.151 1.369 2.928s2.058 1.215 3.294 1.218c1.236-.003 2.42-.441 3.294-1.218s1.366-1.829 1.37-2.927v-6.057s-9.327.924-9.327 6.056zm4.663 1.085c-.242 0-.478-.064-.678-.183s-.357-.289-.45-.487c-.092-.198-.117-.417-.069-.627s.163-.404.334-.556c.171-.152.388-.255.625-.297s.482-.02.706.062c.223.082.414.221.548.4s.206.388.206.603c.001.143-.031.284-.092.417s-.151.252-.264.353c-.114.101-.248.182-.397.236s-.308.083-.468.083v-.004zM19.056 21.302v2.275h-.469v-2.275h.469zm.906.972v.366h-1.034v-.366h1.034zm.11-.972v.367h-1.144v-.367h1.144zm2.14 1.084v.108c0 .173-.023.328-.07.466s-.113.255-.198.352a.85.85 0 0 1-.306.22c-.118.051-.248.077-.392.077s-.273-.026-.392-.077a.868.868 0 0 1-.306-.22c-.086-.097-.154-.214-.202-.352s-.07-.293-.07-.466v-.108c0-.174.023-.329.07-.466a1.04 1.04 0 0 1 .198-.352.87.87 0 0 1 .306-.222.986.986 0 0 1 .392-.077c.144 0 .274.026.392.077a.844.844 0 0 1 .306.222c.086.097.153.214.2.352.048.136.072.292.072.466zm-.473.108v-.111c0-.121-.011-.227-.033-.319s-.054-.169-.097-.231-.095-.109-.156-.141c-.061-.032-.132-.048-.211-.048s-.149.016-.211.048a.423.423 0 0 0-.155.141c-.042.063-.073.14-.095.231s-.033.198-.033.319v.111c0 .12.011.226.033.319a.708.708 0 0 0 .097.233c.043.063.095.11.156.142s.132.048.211.048a.42.42 0 0 0 .366-.19c.042-.064.073-.141.095-.233s.033-.199.033-.319zm1.995.488a.286.286 0 0 0-.019-.109.2.2 0 0 0-.066-.091c-.032-.028-.078-.056-.136-.083s-.134-.055-.227-.084a2.991 2.991 0 0 1-.294-.112 1.229 1.229 0 0 1-.244-.145.654.654 0 0 1-.166-.195.534.534 0 0 1-.059-.258.53.53 0 0 1 .063-.258.596.596 0 0 1 .175-.2.857.857 0 0 1 .266-.13c.103-.03.216-.045.339-.045.168 0 .314.03.439.091s.222.143.291.248c.07.105.105.226.105.361h-.466a.351.351 0 0 0-.042-.175.285.285 0 0 0-.125-.12.446.446 0 0 0-.209-.044.484.484 0 0 0-.203.038.276.276 0 0 0-.122.098.243.243 0 0 0-.041.137c0 .039.009.073.028.105.02.031.049.06.088.088s.086.053.142.077c.056.024.121.047.195.07.124.038.233.08.327.127.095.047.174.099.238.158s.111.124.144.198a.63.63 0 0 1 .048.252.547.547 0 0 1-.225.464c-.073.054-.16.095-.261.123s-.214.042-.339.042c-.113 0-.223-.015-.333-.044a1.011 1.011 0 0 1-.298-.136.657.657 0 0 1-.293-.564h.47c0 .071.011.131.033.18s.053.089.092.119c.041.03.089.052.144.066.056.014.118.02.184.02a.5.5 0 0 0 .2-.034c.053-.023.092-.055.117-.095s.039-.086.039-.137zm1.805-1.68v2.275h-.467v-2.275h.467zm.7 0v.367h-1.856v-.367h1.856zm1.794 1.909v.366h-1.211v-.366h1.211zm-1.058-1.909v2.275h-.469v-2.275h.469zm.9.927v.356h-1.053v-.356h1.053zm.156-.927v.367h-1.209v-.367h1.209zm.275 0h.848c.174 0 .323.026.448.078.126.052.223.129.291.231s.102.228.102.377a.718.718 0 0 1-.063.314.591.591 0 0 1-.173.217.898.898 0 0 1-.261.137l-.148.078h-.738l-.003-.366h.548c.082 0 .151-.015.205-.044s.095-.07.122-.122a.375.375 0 0 0 .042-.181c0-.073-.014-.136-.041-.189s-.068-.094-.123-.122a.456.456 0 0 0-.208-.042h-.38v1.908h-.469v-2.275zm1.272 2.275-.519-1.014.495-.003.525.995v.022h-.502zm2.461-.811h-.58V22.4h.58c.09 0 .163-.015.219-.044.056-.03.097-.072.123-.125s.039-.113.039-.18c0-.068-.013-.131-.039-.189s-.067-.105-.123-.141-.129-.053-.219-.053h-.417v1.908h-.469v-2.275h.886c.178 0 .331.032.458.097.128.064.226.152.294.264s.102.241.102.386c0 .147-.034.274-.102.381s-.166.19-.294.248c-.127.058-.28.088-.458.088zm2.703.445v.366h-1.211v-.366h1.211zm-1.058-1.909v2.275h-.469v-2.275h.469zm.9.927v.356h-1.053v-.356h1.053zm.156-.927v.367h-1.209v-.367h1.209zm1.324 0v2.275h-.467v-2.275h.467zm.7 0v.367h-1.856v-.367h1.856zm1.794 1.909v.366h-1.211v-.366h1.211zM37.5 21.302v2.275h-.469v-2.275h.469zm.9.927v.356h-1.053v-.356H38.4zm.156-.927v.367h-1.209v-.367h1.209zm.275 0h.848c.174 0 .323.026.448.078.126.052.223.129.291.231s.102.228.102.377a.718.718 0 0 1-.063.314.591.591 0 0 1-.173.217.898.898 0 0 1-.261.137l-.148.078h-.737l-.003-.366h.548c.082 0 .151-.015.205-.044s.095-.07.122-.122a.375.375 0 0 0 .042-.181c0-.073-.014-.136-.041-.189s-.068-.094-.123-.122a.456.456 0 0 0-.208-.042h-.38v1.908h-.469v-2.275zm1.272 2.275-.519-1.014.495-.003.525.995v.022h-.502zm1.962-.595a.286.286 0 0 0-.019-.109.2.2 0 0 0-.066-.091c-.032-.028-.078-.056-.136-.083s-.134-.055-.227-.084a2.991 2.991 0 0 1-.294-.112 1.229 1.229 0 0 1-.244-.145.654.654 0 0 1-.166-.195.534.534 0 0 1-.059-.258.53.53 0 0 1 .063-.258.596.596 0 0 1 .175-.2.857.857 0 0 1 .266-.13c.103-.03.216-.045.339-.045.168 0 .314.03.439.091s.222.143.291.248c.07.105.105.226.105.361h-.466a.351.351 0 0 0-.042-.175.285.285 0 0 0-.125-.12.446.446 0 0 0-.209-.044.484.484 0 0 0-.203.038.276.276 0 0 0-.122.098.243.243 0 0 0-.041.137c0 .039.009.073.028.105.02.031.049.06.088.088s.086.053.142.077c.056.024.121.047.195.07.124.038.233.08.327.127.095.047.174.099.237.158s.111.124.144.198a.63.63 0 0 1 .048.252.547.547 0 0 1-.225.464c-.073.054-.16.095-.261.123s-.214.042-.339.042c-.113 0-.223-.015-.333-.044a1.011 1.011 0 0 1-.298-.136.657.657 0 0 1-.293-.564h.47c0 .071.011.131.033.18s.053.089.092.119c.041.03.089.052.144.066.056.014.118.02.184.02a.5.5 0 0 0 .2-.034.25.25 0 0 0 .117-.095.249.249 0 0 0 .039-.137z"/></symbol><symbol id="Logo-4" viewBox="0 0 57 32"><path fill="#afb1b8" style="fill:var(--color4, #afb1b8)" d="M14.272 23.86c.13.147.199.332.196.521.007.123-.017.247-.07.361s-.132.216-.233.298c-.253.175-.565.26-.881.24h-1.549v-3.303h1.517c.3-.018.597.059.841.219.098.075.176.17.227.277s.074.224.068.341a.725.725 0 0 1-.176.505.839.839 0 0 1-.462.258.897.897 0 0 1 .523.282zm-1.816-.499h.648a.653.653 0 0 0 .412-.11c.049-.04.087-.091.111-.146s.034-.116.028-.176c.005-.06-.005-.12-.029-.175s-.061-.106-.108-.147a.665.665 0 0 0-.425-.111h-.638v.866zm1.124 1.267c.052-.041.093-.093.12-.151s.038-.121.034-.184c.004-.064-.008-.127-.035-.186s-.069-.111-.121-.153a.716.716 0 0 0-.441-.119h-.68v.908h.689a.725.725 0 0 0 .435-.115zm3.794.652-.844-1.291h-.317v1.291h-.726v-3.303h1.374c.346-.022.689.078.957.281.192.179.308.415.327.666s-.061.499-.224.701c-.17.178-.401.296-.655.336l.899 1.32h-.789zm-1.161-1.741h.594c.412 0 .619-.167.619-.5a.458.458 0 0 0-.151-.371.687.687 0 0 0-.467-.134h-.601l.007 1.005zm5.129 1.076h-1.447l-.256.665h-.761l1.329-3.265h.823l1.323 3.265h-.761l-.25-.665zm-.194-.5-.529-1.394-.529 1.394h1.057zm5.161 1.165h-.721l-1.616-2.246v2.246h-.719v-3.303h.719l1.616 2.259v-2.259h.721v3.303zm4.113-.791a1.501 1.501 0 0 1-.652.582 2.282 2.282 0 0 1-1.013.208h-1.283v-3.303h1.283c.351-.008.698.061 1.013.203.276.127.503.328.652.576a1.78 1.78 0 0 1 0 1.732zm-.825-.079c.206-.219.319-.499.319-.788s-.113-.569-.319-.788a1.326 1.326 0 0 0-.902-.281h-.5v2.138h.5c.329.019.654-.082.902-.281zM21.793 3.607s9.302 3.216 9.105 7.868v7.87s-9.295-3.217-9.101-7.87l-.004-7.869zm17.392 13.896a13.485 13.485 0 0 1 5.91-1.994v-2.464c-2.444.863-4.517 2.426-5.91 4.458z"/><path fill="#afb1b8" style="fill:var(--color4, #afb1b8)" d="M38.129 18.245c1.438-2.651 3.931-4.697 6.965-5.716V5.43s-13.247 4.58-12.967 11.207v11.205s.59-.205 1.519-.589c0-.358 0-.72.042-1.083.274-3.076 1.871-5.927 4.44-7.925z"/><path fill="#afb1b8" style="fill:var(--color4, #afb1b8)" d="M36.869 22.408c.07-.777.225-1.546.463-2.294-1.6 1.726-2.568 3.867-2.77 6.123-.019.213-.03.426-.035.645a40.466 40.466 0 0 0 2.548-1.229 10.63 10.63 0 0 1-.206-3.245zm.527.04c-.088.982-.033 1.97.164 2.938 3.619-1.983 7.686-5.047 7.529-8.749v-.323c-2.586.265-5.005 1.3-6.886 2.946a10.296 10.296 0 0 0-.807 3.188z"/></symbol><symbol id="Logo-5" viewBox="0 0 57 32"><path fill="#afb1b8" style="fill:var(--color4, #afb1b8)" d="M28.498 14.617a1.58 1.58 0 0 1-.323-1.061v-1.538c0-.471.107-.83.321-1.075s.581-.367 1.102-.366c.489 0 .837.104 1.042.313.224.266.333.592.308.92v.361h-.875v-.366c.003-.12-.005-.24-.025-.358a.352.352 0 0 0-.125-.213.505.505 0 0 0-.317-.083.533.533 0 0 0-.333.088.412.412 0 0 0-.145.235 1.74 1.74 0 0 0-.034.38v1.866c-.014.18.025.36.112.524.044.055.104.099.175.127s.149.038.226.029a.473.473 0 0 0 .31-.085.375.375 0 0 0 .13-.227c.02-.124.03-.249.027-.374v-.379h.875v.346c.025.342-.082.682-.303.967-.201.228-.544.343-1.047.343s-.884-.122-1.1-.376zm3.644.016c-.221-.239-.332-.588-.332-1.05v-1.618c0-.457.111-.803.332-1.037s.591-.352 1.109-.35c.515 0 .883.117 1.104.35.221.235.333.58.333 1.037v1.618c0 .457-.112.807-.337 1.048s-.591.361-1.1.361c-.509 0-.886-.122-1.109-.36zm1.516-.388a.906.906 0 0 0 .105-.479v-1.981a.88.88 0 0 0-.103-.469c-.044-.057-.106-.101-.179-.129s-.152-.037-.231-.027c-.079-.009-.159 0-.231.028s-.135.072-.18.129a.853.853 0 0 0-.105.469v1.99a.888.888 0 0 0 .105.479c.051.05.114.091.185.119a.612.612 0 0 0 .635-.119v-.009zm2.082-3.62h.942l.709 2.985.725-2.985h.917l.092 4.308h-.678l-.072-2.994-.699 2.994h-.544l-.725-3.005-.067 3.005h-.685l.085-4.308zm4.442 0h1.468c.846 0 1.268.408 1.268 1.223 0 .781-.445 1.171-1.336 1.17h-.5v1.915h-.906l.005-4.308zm1.254 1.841a.7.7 0 0 0 .498-.136.694.694 0 0 0 .13-.487 1.327 1.327 0 0 0-.044-.391c-.013-.043-.036-.083-.067-.118s-.07-.065-.115-.087a.94.94 0 0 0-.404-.069h-.352v1.287h.352zm2.789-1.841h.973l.998 4.308h-.844l-.198-.993h-.868l-.203.993h-.857l.998-4.308zm.832 2.816-.339-1.808-.339 1.808h.678zm1.946-2.816h.634l1.214 2.458v-2.458h.752v4.308H49l-1.221-2.566v2.566h-.777l.002-4.308zm4.362 2.666-1.009-2.66h.85l.616 1.708.578-1.708h.832l-.997 2.66v1.643h-.87v-1.643zm-21.469 3.526v.225h-.739v1.751h-.31v-1.751h-.743v-.225h1.792zm2.318 1.976h-.239a.105.105 0 0 1-.067-.019.102.102 0 0 1-.04-.045l-.214-.469h-1.026l-.214.469a.119.119 0 0 1-.033.053.112.112 0 0 1-.067.019h-.239l.906-1.976h.315l.917 1.968zm-1.5-.734h.855l-.362-.804a1.426 1.426 0 0 1-.067-.186 4.03 4.03 0 0 0-.034.105l-.033.083-.359.803zm3.062.54a1.018 1.018 0 0 0 .315-.023.961.961 0 0 0 .13-.036c.04-.014.08-.031.121-.049v-.444h-.362c-.009 0-.018-.001-.026-.003s-.016-.007-.023-.012c-.006-.004-.011-.01-.014-.016s-.005-.013-.004-.02v-.152h.703v.757a1.407 1.407 0 0 1-.609.202 2.598 2.598 0 0 1-.265.012 1.41 1.41 0 0 1-.457-.073 1.09 1.09 0 0 1-.362-.207.956.956 0 0 1-.234-.313.99.99 0 0 1-.083-.41.907.907 0 0 1 .316-.726c.103-.089.227-.159.362-.205.155-.05.32-.075.486-.074.084 0 .169.006.252.017a1.21 1.21 0 0 1 .397.128c.056.031.108.065.158.103l-.087.122c-.007.011-.017.021-.029.027s-.027.01-.041.01a.118.118 0 0 1-.056-.016 1.344 1.344 0 0 1-.089-.047.727.727 0 0 0-.121-.053 1.171 1.171 0 0 0-.167-.044 1.362 1.362 0 0 0-.23-.017 1.06 1.06 0 0 0-.35.055.691.691 0 0 0-.435.402.924.924 0 0 0 0 .659.756.756 0 0 0 .446.405c.115.034.237.047.359.039zm2.889-.031h.989v.225h-1.292v-1.976h.31l-.007 1.751zm2.018.225h-.31v-1.976h.31v1.976zm1.153-1.967a.151.151 0 0 1 .047.036l1.325 1.489a.41.41 0 0 1 0-.07v-1.472h.27v1.984h-.156a.14.14 0 0 1-.067-.011.184.184 0 0 1-.049-.038l-1.323-1.488v1.536h-.259v-1.976h.161c.017 0 .035.003.051.009zm3.923-.009v.217h-1.098v.652h.89v.21h-.89v.674h1.098v.217h-1.417v-1.971h1.417zM11.288 4.615l13.759 3.373v11.819l-13.759-3.371V4.615zm-.883-1.008V17.01l15.523 3.806V7.415L10.405 3.607z"/><path fill="#afb1b8" style="fill:var(--color4, #afb1b8)" d="M18.725 27.037 3.201 23.228V9.827l15.524 3.808v13.403z"/><path fill="#afb1b8" style="fill:var(--color4, #afb1b8)" d="m10.663 4.463 13.58 3.331-5.775 4.987L4.886 9.449l5.777-4.986zm-.258-.856L3.2 9.827l15.524 3.808 7.203-6.22-15.523-3.808zm9.193 22.677 6.33-5.466-6.33-1.553v7.019z"/></symbol><symbol id="Logo" viewBox="0 0 57 32"><path fill="#afb1b8" style="fill:var(--color4, #afb1b8)" d="m20.27 3.732 3.738 3.539-6.939-.004v17.169h18.136v-6.565l3.734 3.535V3.732H20.27zm14.771 13.723L24.442 7.421h10.599v10.034zm-3.291 4.469H19.939V10.377h.835v10.765H31.75v.782zm-9.022 4.797-.436.899-.436-.899h-.366l.637 1.198v.698h.331v-.698l.636-1.198h-.365zm.548 1.896.154-.441h.735l.155.441h.344l-.718-1.896h-.296l-.716 1.896h.343zm.521-1.494.275.787h-.55l.275-.787zm1.737.742a.429.429 0 0 0-.072.241c0 .16.056.29.168.389s.263.148.451.148.349-.051.484-.152l.107.126h.367l-.279-.329a.95.95 0 0 0 .164-.574h-.275a.755.755 0 0 1-.079.348l-.366-.432.129-.094c.091-.066.157-.132.197-.198s.06-.14.06-.219c0-.12-.044-.22-.133-.301s-.201-.122-.339-.122c-.153 0-.274.043-.365.13s-.135.203-.135.352c0 .061.014.124.043.189s.081.144.155.237a1.12 1.12 0 0 0-.283.262zm.856.419a.485.485 0 0 1-.299.107c-.095 0-.17-.027-.227-.082s-.085-.126-.085-.214c0-.102.052-.192.156-.271l.04-.029.414.488zm-.34-.84c-.089-.11-.134-.202-.134-.275 0-.063.018-.116.055-.158s.085-.063.147-.063c.057 0 .105.018.142.053s.056.077.056.126a.235.235 0 0 1-.081.184l-.04.033-.145.099zm3.087 1.03a.689.689 0 0 0 .224-.474h-.328c-.017.135-.059.232-.124.29s-.162.087-.292.087c-.142 0-.249-.054-.323-.161s-.109-.264-.109-.469v-.168c.002-.202.041-.356.117-.46s.188-.158.331-.158c.123 0 .217.03.28.091s.104.158.12.294h.328c-.021-.207-.095-.368-.223-.482s-.296-.171-.505-.171a.712.712 0 0 0-.684.426 1.116 1.116 0 0 0-.095.473v.177c.003.174.035.328.098.46s.151.234.266.306a.748.748 0 0 0 .4.107c.216 0 .389-.056.52-.169zm1.936-.266c.064-.141.096-.304.096-.49v-.105c-.001-.185-.034-.347-.099-.486a.726.726 0 0 0-.687-.432.763.763 0 0 0-.412.113c-.119.075-.211.183-.277.324s-.098.305-.098.49v.107c.001.181.034.342.099.48s.159.246.279.322a.765.765 0 0 0 .412.112c.155 0 .293-.037.411-.112s.212-.183.276-.323zm-.353-1.071c.08.112.12.273.12.483v.099c0 .214-.04.376-.119.487s-.19.167-.336.167c-.144 0-.257-.057-.339-.171s-.121-.275-.121-.483v-.109c.002-.204.043-.362.122-.473s.192-.168.335-.168c.146 0 .258.056.337.168z"/></symbol><symbol id="smartphone" viewBox="0 0 20 32"><path fill="#757575" style="fill:var(--color3, #757575)" d="M17.022 0H3.008A3.006 3.006 0 0 0 .005 3.003v26.025a3.006 3.006 0 0 0 3.003 3.003h14.014a3.006 3.006 0 0 0 3.003-3.003V3.003A3.006 3.006 0 0 0 17.022 0zM3.009 2.002h14.014c.552 0 1.001.449 1.001 1.001v21.021H2.008V3.003c0-.552.449-1.001 1.001-1.001zm14.013 28.027H3.008a1.002 1.002 0 0 1-1.001-1.001v-3.003h16.016v3.003c0 .552-.449 1.001-1.001 1.001z"/><path fill="#757575" style="fill:var(--color3, #757575)" d="M4.718 27.505c.391.365.391.957 0 1.322s-1.025.365-1.416 0-.391-.957 0-1.322 1.025-.365 1.416 0z"/></symbol><symbol id="twitter" viewBox="0 0 32 32"><path fill="#afb1b8" style="fill:var(--color4, #afb1b8)" d="M32.013 6.08c-1.19.522-2.459.868-3.781 1.036a6.523 6.523 0 0 0 2.887-3.627 13.138 13.138 0 0 1-4.162 1.589 6.578 6.578 0 0 0-4.794-2.077c-3.633 0-6.558 2.949-6.558 6.565 0 .52.044 1.02.152 1.497-5.456-.266-10.284-2.881-13.527-6.865a6.609 6.609 0 0 0-.898 3.317 6.57 6.57 0 0 0 2.915 5.454 6.483 6.483 0 0 1-2.965-.808v.072c0 3.189 2.275 5.838 5.258 6.448a6.55 6.55 0 0 1-1.721.216 5.8 5.8 0 0 1-1.242-.112c.85 2.599 3.263 4.51 6.132 4.572a13.185 13.185 0 0 1-8.137 2.799c-.538 0-1.054-.024-1.571-.09a18.472 18.472 0 0 0 10.068 2.945c12.077 0 18.679-10.004 18.679-18.675 0-.29-.01-.57-.024-.848a13.079 13.079 0 0 0 3.289-3.407z"/></symbol></defs></svg>