<svg aria-hidden="true" style="position: absolute; width: 0; height: 0; overflow: hidden;" version="1.1" xmlns="http://www.w3.org/2000/svg" xmlns:xlink="http://www.w3.org/1999/xlink">
<defs>
<symbol id="facebook-1-1" viewBox="0 0 32 32">
<path fill="#afb1b8" style="fill: var(--color1, #afb1b8)" d="M21.338 5.315h2.923v-5.090c-0.504-0.069-2.238-0.225-4.258-0.225-4.214 0-7.1 2.65-7.1 7.522v4.483h-4.65v5.69h4.65v14.318h5.701v-14.316h4.462l0.708-5.69h-5.171v-3.92c0.001-1.645 0.444-2.77 2.736-2.77z"></path>
</symbol>
<symbol id="Group-1" viewBox="0 0 36 32">
<path fill="#afb1b8" style="fill: var(--color1, #afb1b8)" d="M35.569 4.971c-1.323 0.58-2.732 0.965-4.202 1.152 1.512-0.903 2.666-2.321 3.208-4.030-1.409 0.84-2.965 1.434-4.624 1.765-1.338-1.425-3.246-2.308-5.327-2.308-4.037 0-7.287 3.277-7.287 7.294 0 0.578 0.049 1.134 0.169 1.663-6.062-0.296-11.427-3.201-15.030-7.627-0.629 1.092-0.998 2.341-0.998 3.686 0 2.525 1.3 4.764 3.239 6.060-1.172-0.022-2.321-0.362-3.295-0.898v0.080c0 3.544 2.528 6.487 5.842 7.165-0.594 0.162-1.24 0.24-1.912 0.24-0.467 0-0.938-0.026-1.381-0.125 0.945 2.888 3.626 5.011 6.814 5.080-2.481 1.941-5.631 3.11-9.041 3.11-0.598 0-1.172-0.026-1.745-0.1 3.23 2.083 7.058 3.272 11.187 3.272 13.419 0 20.755-11.115 20.755-20.75 0-0.322-0.011-0.634-0.027-0.943 1.447-1.027 2.663-2.31 3.655-3.786z"></path>
</symbol>
<symbol id="instagram-2-1" viewBox="0 0 32 32">
<path fill="#afb1b8" style="fill: var(--color1, #afb1b8)" d="M31.981 9.412c-0.075-1.701-0.35-2.87-0.744-3.884-0.407-1.076-1.032-2.039-1.851-2.839-0.8-0.813-1.77-1.445-2.833-1.845-1.019-0.394-2.182-0.669-3.883-0.744-1.714-0.081-2.258-0.1-6.604-0.1s-4.89 0.019-6.598 0.094c-1.701 0.075-2.87 0.35-3.883 0.744-1.076 0.406-2.039 1.032-2.839 1.851-0.813 0.8-1.444 1.77-1.845 2.833-0.394 1.019-0.669 2.182-0.744 3.883-0.081 1.714-0.1 2.258-0.1 6.604s0.019 4.89 0.094 6.598c0.075 1.701 0.35 2.87 0.744 3.884 0.406 1.075 1.038 2.039 1.851 2.839 0.801 0.813 1.77 1.445 2.833 1.845 1.019 0.394 2.182 0.669 3.884 0.744 1.707 0.075 2.251 0.094 6.598 0.094s4.89-0.019 6.598-0.094c1.701-0.075 2.87-0.35 3.883-0.744 2.151-0.832 3.852-2.533 4.684-4.684 0.394-1.019 0.669-2.183 0.744-3.884 0.075-1.707 0.094-2.251 0.094-6.598s-0.006-4.89-0.081-6.598zM29.098 22.482c-0.069 1.564-0.331 2.408-0.55 2.97-0.538 1.395-1.645 2.501-3.039 3.039-0.563 0.219-1.413 0.481-2.97 0.55-1.689 0.075-2.195 0.094-6.466 0.094s-4.784-0.019-6.466-0.094c-1.563-0.069-2.408-0.331-2.97-0.55-0.694-0.256-1.326-0.663-1.838-1.195-0.532-0.519-0.938-1.144-1.195-1.838-0.219-0.563-0.481-1.413-0.55-2.97-0.075-1.689-0.094-2.195-0.094-6.467s0.019-4.784 0.094-6.466c0.069-1.563 0.331-2.408 0.55-2.97 0.256-0.694 0.663-1.326 1.201-1.839 0.519-0.532 1.144-0.938 1.838-1.194 0.563-0.219 1.413-0.481 2.97-0.55 1.688-0.075 2.195-0.094 6.466-0.094 4.278 0 4.784 0.019 6.466 0.094 1.564 0.069 2.408 0.332 2.971 0.55 0.694 0.256 1.326 0.663 1.838 1.194 0.531 0.519 0.938 1.144 1.195 1.839 0.219 0.563 0.481 1.413 0.55 2.97 0.075 1.688 0.094 2.195 0.094 6.466s-0.019 4.772-0.094 6.46z"></path>
<path fill="#afb1b8" style="fill: var(--color1, #afb1b8)" d="M16.066 7.786c-4.54 0-8.224 3.683-8.224 8.224s3.684 8.224 8.224 8.224c4.54 0 8.224-3.683 8.224-8.224s-3.683-8.224-8.224-8.224zM16.066 21.344c-2.945 0-5.334-2.389-5.334-5.334s2.389-5.334 5.334-5.334c2.945 0 5.334 2.389 5.334 5.334s-2.389 5.334-5.334 5.334zM26.534 7.461c0 1.060-0.86 1.92-1.92 1.92s-1.92-0.86-1.92-1.92c0-1.060 0.86-1.92 1.92-1.92s1.92 0.859 1.92 1.92z"></path>
</symbol>
<symbol id="linkedin-1-1" viewBox="0 0 32 32">
<path fill="#afb1b8" style="fill: var(--color1, #afb1b8)" d="M32.005 32.013v-0.001h0.008v-11.741c0-5.744-1.236-10.168-7.951-10.168-3.228 0-5.394 1.771-6.278 3.451h-0.093v-2.914h-6.367v21.372h6.629v-10.583c0-2.786 0.528-5.481 3.979-5.481 3.4 0 3.451 3.18 3.451 5.66v10.405h6.623zM0.528 10.64h6.637v21.372h-6.637v-21.372zM3.844 0c-2.122 0-3.844 1.722-3.844 3.844s1.722 3.88 3.844 3.88c2.122 0 3.844-1.758 3.844-3.88-0.001-2.122-1.723-3.844-3.844-3.844z"></path>
</symbol>
</defs>
</svg>
